<svg width="93.000000" height="17.000000" viewBox="0 0 93 17" fill="none" xmlns="http://www.w3.org/2000/svg" xmlns:xlink="http://www.w3.org/1999/xlink">
	<desc>
			Created with Pixso.
	</desc>
	<defs/>
	<path id="FoodTrove" d="M38.44 14.43C38.73 14.74 39.05 14.9 39.4 14.9C39.72 14.9 40.01 14.78 40.26 14.55C40.52 14.32 40.65 13.99 40.65 13.55C40.65 13.45 40.64 13.33 40.62 13.22C40.47 12.23 40.37 11.16 40.33 10.02C40.3 8.88 40.28 7.73 40.28 6.59L40.28 5.73C40.28 4.46 40.24 3.32 40.17 2.32C40.07 1.09 39.81 0.3 39.38 -0.06C39.13 -0.24 38.86 -0.33 38.58 -0.33C38.27 -0.33 37.99 -0.21 37.74 0.03C37.49 0.27 37.32 0.64 37.24 1.14C37.1 2.04 37 2.76 36.94 3.3C36.87 3.83 36.81 4.23 36.76 4.48C36.72 4.73 36.66 4.89 36.58 4.96C36.51 5.03 36.4 5.06 36.26 5.06L36.12 5.06C36.07 5.05 36.01 5.04 35.94 5.04C35.45 5.04 34.85 5.18 34.14 5.46Q31.43 6.6 30.46 8.59Q30.4 8.72 30.34 8.85C30.07 9.51 29.93 10.16 29.93 10.8Q29.93 11.76 30.28 12.57Q30.48 13.04 30.81 13.46C31.39 14.2 32.12 14.58 33 14.58Q33.01 14.58 33.02 14.58Q34.53 14.56 36.02 12.87Q36.92 11.76 37.11 11.27C37.26 10.98 37.4 10.82 37.54 10.8C37.65 11.3 37.72 11.77 37.75 12.21C37.78 12.64 37.84 13.04 37.93 13.41C38.02 13.77 38.19 14.11 38.44 14.43ZM22.06 14.71C22.54 14.95 23.05 15.07 23.58 15.07Q23.7 15.07 23.82 15.07Q25.17 14.99 26.46 13.99Q26.81 13.72 27.1 13.42Q28.03 12.47 28.53 11.11C28.64 10.74 28.7 10.39 28.7 10.03C28.7 9.27 28.46 8.56 27.98 7.92C27.5 7.27 26.9 6.73 26.18 6.31Q25.22 5.74 24.19 5.51Q24.05 5.48 23.9 5.46C23.75 5.43 23.65 5.31 23.6 5.11C23.56 4.9 23.52 4.65 23.5 4.34C23.49 3.93 23.43 3.51 23.33 3.06C23.23 2.61 23.01 2.21 22.67 1.86C22.34 1.49 21.81 1.25 21.07 1.12C20.76 1.08 20.46 1.06 20.16 1.06C19.27 1.06 18.43 1.21 17.63 1.52C16.84 1.82 16.13 2.17 15.49 2.58C14.86 2.97 14.34 3.32 13.94 3.63C13.49 3.97 13.2 4.15 13.09 4.15L13.07 4.15C12.93 4.1 12.79 4.08 12.66 4.08Q12.55 4.08 12.45 4.1Q11.83 4.2 11.31 4.88C10.91 5.41 10.59 6.1 10.35 6.93Q10.34 6.98 10.32 7.03Q10 8.22 10 9.49Q10 10.64 10.32 11.69Q10.34 11.77 10.37 11.84Q10.66 12.74 11.25 13.38Q11.39 13.53 11.55 13.67Q11.6 13.7 11.65 13.74Q12.44 14.35 13.71 14.35Q14.67 14.35 15.49 14.03Q16.41 13.66 17.17 12.9Q17.85 12.21 18.11 11.39Q18.27 10.87 18.27 10.31Q18.27 10.08 18.24 9.86Q18.09 8.78 17.22 7.79C16.75 7.28 16.37 6.9 16.08 6.66C15.9 6.5 15.75 6.36 15.65 6.26C15.55 6.14 15.5 6.04 15.5 5.95Q15.5 5.7 16 5.33C16.53 4.91 17.23 4.51 18.1 4.11C18.97 3.72 19.67 3.52 20.21 3.52C20.62 3.52 20.84 3.67 20.85 3.97L20.85 4.08C20.85 4.5 20.81 4.95 20.74 5.44C20.66 5.92 20.58 6.42 20.48 6.95C20.37 7.53 20.28 8.13 20.19 8.74C20.11 9.33 20.06 9.92 20.06 10.5Q20.06 12.34 20.83 13.55C21.17 14.08 21.58 14.46 22.06 14.71ZM45.17 13.15C45.38 14.48 45.83 15.14 46.53 15.14C46.65 15.14 46.79 15.12 46.93 15.07C47.22 14.99 47.43 14.83 47.53 14.61C47.64 14.39 47.69 14.06 47.69 13.63C47.69 13.28 47.67 12.85 47.63 12.34C47.59 11.76 47.56 11.05 47.53 10.21C47.48 8.66 47.4 7.54 47.29 6.85C47.24 6.45 47.21 6.15 47.21 5.92C47.21 5.61 47.3 5.42 47.47 5.35Q47.73 5.23 48.4 5.19C48.86 5.15 49.48 5.07 50.27 4.93C50.93 4.8 51.4 4.61 51.68 4.35C51.97 4.09 52.11 3.81 52.11 3.54Q52.11 3.42 52.08 3.31Q52.01 3.05 51.76 2.83C51.53 2.62 51.24 2.51 50.88 2.51C50.76 2.51 50.64 2.52 50.53 2.55C49.27 2.78 47.9 2.94 46.41 3.03C45.44 3.09 44.54 3.17 43.71 3.28Q42.46 3.43 41.68 3.76C41.14 3.99 40.88 4.32 40.88 4.75C40.88 4.92 40.93 5.12 41.02 5.33C41.16 5.63 41.31 5.84 41.47 5.95C41.63 6.06 41.82 6.11 42.03 6.11C42.29 6.11 42.58 6.06 42.91 5.95C43.32 5.84 43.8 5.76 44.35 5.71Q44.4 5.71 44.44 5.73Q44.76 5.83 44.83 6.72C44.89 7.39 44.93 8.21 44.93 9.17C44.94 10.95 45.02 12.28 45.17 13.15ZM1.56 14.77Q1.92 15.06 2.27 15.06Q2.38 15.06 2.49 15.03Q2.79 14.96 3.04 14.67C3.26 14.42 3.37 14.1 3.37 13.71Q3.37 13.46 3.23 12.64Q3.13 12.16 3.13 11.89C3.13 11.59 3.27 11.4 3.55 11.31C3.83 11.23 4.36 11.15 5.15 11.09L6.41 10.95C6.86 10.88 7.2 10.74 7.44 10.51C7.68 10.29 7.8 10.04 7.8 9.78C7.8 9.47 7.62 9.19 7.26 8.93C7.04 8.79 6.74 8.72 6.38 8.72C6.08 8.72 5.66 8.75 5.1 8.8L4.35 8.87C4.17 8.88 4 8.89 3.85 8.91C3.71 8.93 3.59 8.95 3.48 8.95Q3.3 8.95 3.23 8.85Q3.22 8.84 3.21 8.83C3.17 8.75 3.15 8.58 3.15 8.32L3.15 7.95C3.16 7.75 3.16 7.51 3.16 7.23L3.1 7.23L3.08 6.11Q3.08 5.65 3.21 5.55C3.3 5.48 3.49 5.43 3.79 5.41L3.8 5.41C4.69 5.27 5.58 5.2 6.46 5.2C6.9 5.2 7.33 5.23 7.76 5.28L8.03 5.3Q8.54 5.3 8.82 5.04Q8.83 5.04 8.84 5.03C9.04 4.83 9.13 4.61 9.13 4.37C9.13 4.19 9.07 4.01 8.94 3.83C8.81 3.63 8.62 3.48 8.35 3.38C8.09 3.26 7.78 3.18 7.42 3.14C7.06 3.09 6.67 3.07 6.25 3.07C5.6 3.07 4.95 3.1 4.28 3.15C3.73 3.2 3.26 3.22 2.86 3.22Q2.28 3.22 2.06 3.11C1.91 3.02 1.75 2.98 1.58 2.98Q1.53 2.98 1.48 2.98Q1.2 3 0.92 3.17C0.71 3.3 0.56 3.46 0.48 3.67C0.41 3.8 0.33 3.95 0.22 4.1Q0.06 4.32 -0.07 4.56C-0.15 4.72 -0.2 4.9 -0.2 5.09C-0.2 5.33 -0.09 5.61 0.12 5.91C0.32 6.16 0.41 6.44 0.41 6.75L0.46 9.12Q0.46 9.52 0.41 9.68C0.39 9.79 0.35 9.89 0.28 9.99C0.16 10.2 0.09 10.39 0.09 10.55C0.09 10.76 0.16 10.96 0.3 11.15C0.46 11.4 0.57 11.73 0.62 12.16Q0.72 13.22 0.97 13.86Q1.23 14.5 1.56 14.77ZM86.97 14.91L87.42 14.91Q88.86 14.91 89.93 14.43C90.64 14.11 91.19 13.72 91.58 13.27Q92.17 12.58 92.17 12C92.17 11.75 92.07 11.53 91.88 11.35C91.69 11.15 91.4 11.04 91 10.99L90.79 10.98Q90.44 10.98 90.17 11.09C90 11.16 89.82 11.25 89.64 11.35Q88.52 11.99 87.42 11.99Q86.57 11.99 85.93 11.62Q85.73 11.5 85.54 11.35C85.05 10.92 84.81 10.38 84.81 9.73C84.81 9.4 84.85 9.23 84.94 9.23C84.98 9.23 85.02 9.25 85.06 9.28C85.12 9.3 85.17 9.33 85.21 9.36C85.26 9.39 85.31 9.42 85.35 9.44C85.95 9.77 86.52 9.94 87.06 9.94Q87.57 9.94 88.02 9.79Q88.48 9.64 88.89 9.35Q89.26 9.07 89.57 8.74Q89.92 8.34 90.18 7.86C90.5 7.26 90.66 6.65 90.66 6.03C90.66 5.39 90.45 4.81 90.02 4.29C89.61 3.76 88.92 3.4 87.96 3.23C87.69 3.19 87.44 3.17 87.19 3.17Q86.41 3.17 85.72 3.41Q85.33 3.55 84.97 3.76C84.31 4.15 83.74 4.66 83.26 5.31C82.79 5.95 82.42 6.67 82.15 7.46C81.9 8.25 81.77 9.04 81.77 9.83C81.77 10.71 81.94 11.54 82.3 12.32C82.66 13.09 83.22 13.71 83.98 14.19C84.74 14.67 85.74 14.91 86.97 14.91ZM63.39 14.13C63.9 14.57 64.55 14.79 65.34 14.79C66.41 14.79 67.44 14.31 68.45 13.35C69.37 12.47 69.94 11.22 70.16 9.59Q70.14 9.16 70.08 8.75Q69.92 7.7 69.44 6.71C68.99 5.78 68.33 5.2 67.45 4.98C67.26 4.92 67.08 4.81 66.89 4.64C66.76 4.52 66.6 4.42 66.43 4.32C66.27 4.21 66.06 4.16 65.81 4.16C65.58 4.16 65.31 4.23 64.99 4.35C63.97 4.82 63.19 5.61 62.65 6.72Q62.15 7.78 61.97 8.89Q61.87 9.53 61.87 10.18C61.87 10.98 61.99 11.73 62.24 12.43C62.49 13.14 62.88 13.7 63.39 14.13ZM52.29 13.78C52.5 14.49 53.03 14.85 53.89 14.85C54.21 14.85 54.44 14.75 54.58 14.56C54.73 14.38 54.83 14.12 54.87 13.79C54.92 13.46 54.96 13.09 54.98 12.67C54.99 12.04 55.06 11.38 55.19 10.67C55.33 9.96 55.63 9.28 56.1 8.64C56.58 8 57.34 7.47 58.39 7.06C58.58 6.99 58.77 6.96 58.95 6.96C59.15 6.96 59.35 6.98 59.54 7.03C59.73 7.06 59.91 7.07 60.07 7.07C60.26 7.07 60.44 7.03 60.6 6.93C60.76 6.83 60.9 6.65 61.01 6.39C61.08 6.23 61.11 6.07 61.11 5.92Q61.11 5.76 61.07 5.62Q60.94 5.2 60.47 4.9C60.05 4.61 59.5 4.47 58.82 4.47C58.27 4.47 57.65 4.58 56.98 4.82C56.31 5.05 55.62 5.44 54.9 5.99C54.61 6.21 54.43 6.32 54.34 6.32C54.29 6.32 54.24 6.26 54.2 6.13C54.09 5.82 53.9 5.57 53.64 5.39C53.37 5.2 53.12 5.11 52.89 5.11C52.6 5.11 52.35 5.21 52.15 5.43Q52.01 5.58 51.94 5.77Q51.86 5.96 51.86 6.18L51.86 6.91C51.86 7.48 51.94 8.03 52.09 8.58C52.15 8.83 52.18 9.15 52.18 9.54C52.18 9.9 52.17 10.31 52.13 10.75C52.1 11.24 52.09 11.72 52.09 12.19C52.09 12.78 52.16 13.31 52.29 13.78ZM73.64 14.42C74.19 15.58 74.86 16.16 75.64 16.16Q76.04 16.16 76.52 15.94C77.05 15.65 77.57 15.03 78.06 14.07C78.56 13.12 79.03 11.99 79.46 10.69C79.91 9.38 80.33 8.04 80.71 6.69C80.78 6.48 80.81 6.28 80.81 6.1Q80.81 5.57 80.55 5.24Q80.53 5.21 80.5 5.19C80.3 4.95 80.06 4.83 79.77 4.83C79.48 4.83 79.19 4.97 78.89 5.25C78.59 5.52 78.33 5.95 78.1 6.56Q76.9 10.07 76.54 10.98C76.23 11.78 75.98 12.18 75.8 12.18C75.67 12.18 75.55 12.03 75.43 11.73C75.33 11.42 75.19 10.99 75.03 10.45Q74.63 9.01 73.77 6.79Q73.67 6.55 73.51 6.36Q73.37 6.19 73.18 6.07C72.91 5.88 72.64 5.79 72.38 5.79Q72.22 5.79 72.08 5.84Q71.88 5.91 71.7 6.08C71.51 6.27 71.42 6.58 71.42 7.01C71.42 7.44 71.54 8 71.8 8.71Q72.14 9.6 72.46 10.88C72.88 12.46 73.28 13.64 73.64 14.42ZM87.29 7.6C87.18 7.65 87.1 7.68 87.03 7.68Q86.87 7.68 86.7 7.49C86.48 7.28 86.2 7.15 85.83 7.12C85.72 7.11 85.66 7.06 85.66 6.98C85.66 6.8 85.86 6.53 86.28 6.19C86.71 5.85 87.1 5.68 87.46 5.68C87.71 5.68 87.9 5.76 88.02 5.91C88.15 6.04 88.22 6.21 88.22 6.42C88.22 6.62 88.14 6.83 87.99 7.04C87.84 7.25 87.61 7.44 87.29 7.6ZM65.73 11.75C65.6 11.81 65.48 11.84 65.37 11.84Q65.27 11.84 65.18 11.8Q64.91 11.7 64.77 11.28C64.65 10.9 64.59 10.44 64.59 9.92C64.59 9.24 64.68 8.56 64.86 7.89C65.05 7.22 65.32 6.76 65.66 6.53Q66.35 7.27 66.64 7.81C66.84 8.17 66.97 8.58 67.02 9.04L67.04 9.36C67.04 9.84 66.92 10.31 66.67 10.75Q66.39 11.27 65.97 11.59Q65.85 11.67 65.73 11.75ZM35.03 9.95Q33.93 11.97 33.1 11.97Q32.97 11.97 32.86 11.92Q32.74 11.85 32.65 11.71C32.54 11.54 32.49 11.32 32.49 11.04Q32.49 10.48 32.81 9.75C33.03 9.25 33.38 8.78 33.86 8.32C34.35 7.86 35 7.47 35.8 7.15L35.91 7.14Q35.97 7.14 36 7.16Q36.07 7.21 36.07 7.36C36.07 7.61 35.96 7.98 35.75 8.48C35.54 8.97 35.3 9.46 35.03 9.95ZM14.93 11.01C14.67 11.25 14.39 11.38 14.08 11.38C13.77 11.38 13.49 11.21 13.23 10.88C12.99 10.54 12.86 9.94 12.86 9.07Q12.86 7.8 13.07 7.76Q13.08 7.76 13.09 7.76Q13.39 7.76 14.3 8.72C14.8 9.25 15.11 9.61 15.23 9.79C15.3 9.92 15.33 10.05 15.33 10.18C15.33 10.48 15.19 10.75 14.93 11.01ZM25.09 11.43C24.67 11.89 24.26 12.13 23.86 12.13C23.61 12.13 23.4 12 23.22 11.73C23.03 11.46 22.94 11 22.94 10.34Q22.94 9.43 23.23 7.95C24.13 8.25 24.87 8.72 25.46 9.35C25.63 9.54 25.71 9.76 25.71 10.02C25.71 10.48 25.5 10.95 25.09 11.43Z" fill="#000000" fill-opacity="1.000000" fill-rule="evenodd"/>
</svg>
