<svg width="87.000000" height="87.000000" viewBox="0 0 87 87" fill="none" xmlns="http://www.w3.org/2000/svg" xmlns:xlink="http://www.w3.org/1999/xlink">
	<desc>
			Created with Pixso.
	</desc>
	<defs/>
	<path id="Vector" d="M53.44 57.62C45.49 63.03 34.62 60.97 29.21 53.02C23.8 45.08 25.86 34.21 33.81 28.8C41.75 23.39 52.62 25.45 58.03 33.39C63.44 41.34 61.38 52.21 53.44 57.62ZM34.51 29.84C27.14 34.86 25.23 44.94 30.25 52.31C35.27 59.69 45.36 61.6 52.73 56.58C60.1 51.56 62.01 41.47 56.99 34.1C51.97 26.73 41.89 24.82 34.51 29.84Z" fill="#CDCDCD" fill-opacity="1.000000" fill-rule="nonzero"/>
	<path id="Vector" d="M55.89 31.57L55.37 31.57C54.88 31.57 54.44 31.51 54.11 31.45C54.15 31.11 54.29 30.53 54.39 30.13L54.53 29.62L54.02 29.74C53.43 29.88 52.9 29.92 52.58 29.92L52.57 29.9C52.5 29.69 52.47 28.86 52.47 28.33L52.47 27.81L52.01 28.05C51.62 28.26 51.25 28.4 50.95 28.5C51 28.07 51.06 27.64 51.06 27.63L51.14 27.11L50.65 27.29C50.04 27.5 49.48 27.6 49.16 27.64C49.08 27.16 49.03 26.52 49.03 26.51L48.98 25.99L48.54 26.28C48.26 26.46 47.98 26.61 47.74 26.73C47.92 25.78 48 25.06 47.95 24.59C47.82 23.31 47.71 20.35 47.69 19.87C47.71 19.69 47.66 19.34 47.15 19.05C46.84 18.87 46.42 18.75 45.98 18.71C45.36 18.65 44.78 18.75 44.43 18.99C44.28 19.09 44.18 19.22 44.12 19.36C43.93 19.64 43.58 20.29 43.71 21.29C43.77 21.75 43.9 22.27 44.04 22.81C44.25 23.65 44.48 24.52 44.42 25.17C44.39 25.56 44.23 26.24 43.95 27.15C43.7 26.94 43.26 26.45 42.97 26.12L42.63 25.72L42.44 26.21C42.25 26.69 42.02 27.1 41.84 27.39C41.49 27.08 41.09 26.7 41.09 26.7L40.72 26.33L40.57 26.84C40.44 27.28 40.28 27.67 40.13 27.96C39.77 27.79 39.23 27.49 39.01 27.36L38.56 27.09L38.53 27.61C38.51 28.06 38.45 28.46 38.38 28.78C37.93 28.63 37.41 28.42 37.4 28.42L36.91 28.23L36.97 28.75C37.03 29.28 37.01 29.77 36.99 30.1C36.66 30.08 36.03 29.97 35.61 29.89L35.1 29.78L35.25 30.28C35.4 30.79 35.47 31.26 35.5 31.59C35.18 31.63 34.52 31.62 34.08 31.6L33.56 31.58L33.78 32.05C34.03 32.57 34.18 33.07 34.26 33.39C33.92 33.42 33.35 33.41 32.95 33.39L32.43 33.37L32.66 33.84C32.94 34.43 33.09 34.99 33.17 35.3C32.84 35.37 32.21 35.45 31.78 35.49L31.26 35.54L31.55 35.98C31.87 36.46 32.08 36.93 32.21 37.24C31.92 37.34 31.23 37.5 30.78 37.58L30.26 37.68L30.59 38.09C30.96 38.55 31.22 39 31.37 39.3C31.05 39.45 30.47 39.67 30.12 39.79L29.62 39.96L30.01 40.32C30.36 40.64 30.64 40.98 30.83 41.24C30.47 41.4 29.96 41.58 29.74 41.66L29.25 41.83L29.63 42.18C30.07 42.59 30.4 43 30.58 43.27C30.14 43.47 29.52 43.68 29.51 43.68L29.02 43.85L29.4 44.21C29.76 44.54 30.05 44.88 30.25 45.15C30.13 45.25 29.94 45.39 29.62 45.61C29.36 45.79 29.14 45.93 29.14 45.93L28.69 46.21L29.15 46.47C29.67 46.76 30.09 47.1 30.34 47.32L30.33 47.34C30.23 47.54 29.69 48.17 29.33 48.56L28.97 48.94L29.48 49.07C29.9 49.18 30.27 49.33 30.56 49.46C30.24 49.74 29.89 50.02 29.89 50.03L29.48 50.36L29.96 50.56C30.47 50.78 30.9 51.04 31.17 51.23C31 51.52 30.64 52.01 30.39 52.34L30.07 52.75L30.58 52.84C31.03 52.92 31.42 53.04 31.72 53.14C31.67 53.41 31.4 54.11 31.2 54.56L31 55.04L31.52 55C31.99 54.96 32.41 54.97 32.74 55C32.58 55.31 32.25 55.81 32.02 56.15L31.72 56.59L32.24 56.64C32.73 56.7 33.16 56.8 33.48 56.9C33.4 57.23 33.19 57.8 33.05 58.19L32.85 58.68L33.38 58.61C33.97 58.54 34.51 58.56 34.83 58.59L34.84 58.62C34.88 58.83 34.82 59.66 34.76 60.19L34.7 60.71L35.18 60.52C35.59 60.35 35.98 60.25 36.28 60.19C36.19 60.61 36.08 61.03 36.08 61.04L35.94 61.55L36.45 61.43C37 61.3 37.49 61.26 37.83 61.25C37.86 61.59 37.86 62.19 37.85 62.61L37.84 63.13L38.31 62.9C38.81 62.64 39.3 62.49 39.62 62.4C39.74 62.68 39.92 63.36 40.03 63.8L40.15 64.32L40.54 63.97C40.85 63.7 41.21 63.44 41.58 63.22L41.59 63.22C41.76 63.36 42.23 64.05 42.51 64.5L42.78 64.95L43.05 64.49C43.25 64.13 43.48 63.82 43.67 63.58L43.67 63.59C43.87 63.68 44.48 64.25 44.86 64.62L45.23 64.99L45.38 64.48C45.46 64.22 45.55 63.96 45.67 63.69C45.94 63.79 46.59 64.13 47 64.37L47.46 64.63L47.48 64.11C47.48 63.96 47.49 63.81 47.5 63.66C47.83 63.8 48.31 64.05 48.64 64.24L49.1 64.49L49.11 63.97C49.12 63.56 49.16 63.19 49.22 62.89C49.46 62.95 50.17 63.3 50.62 63.54L51.08 63.78L51.08 63.26C51.08 62.81 51.13 62.4 51.17 62.1C51.56 62.28 51.94 62.48 51.95 62.48L52.41 62.73L52.41 62.2C52.41 61.65 52.48 61.16 52.55 60.82C52.94 60.87 53.56 61.01 53.81 61.07L54.32 61.19L54.18 60.68C54.06 60.21 54 59.77 53.98 59.45C54.38 59.48 54.92 59.55 55.14 59.58L55.66 59.66L55.49 59.17C55.42 58.98 55.36 58.79 55.31 58.59L55.43 58.62L55.32 58.11C55.31 58.1 55.31 58.09 55.31 58.07C55.79 58.11 56.38 58.19 56.39 58.19L56.91 58.27L56.73 57.77C56.55 57.29 56.46 56.83 56.4 56.5C56.57 56.5 56.68 56.5 56.69 56.5L57.21 56.49L57.2 56.47C57.41 56.5 57.57 56.53 57.57 56.53L58.09 56.61L57.92 56.11C57.71 55.51 57.62 54.96 57.58 54.63C57.81 54.54 58.6 54.42 59.11 54.36L59.63 54.3L59.33 53.87C58.94 53.31 58.7 52.77 58.58 52.48C58.94 52.3 59.53 52.07 59.78 51.98L60.27 51.8L59.88 51.45C59.49 51.1 59.18 50.74 58.98 50.48L58.99 50.48C59.12 50.31 59.78 49.81 60.22 49.51L60.65 49.21L60.18 48.97C59.88 48.81 59.58 48.63 59.29 48.42L59.21 48.36C59.15 48.31 59.09 48.26 59.03 48.21C59.38 48.01 60.01 47.72 60.25 47.62L60.74 47.41L60.33 47.08C59.87 46.72 59.53 46.35 59.31 46.09C59.67 45.78 60.14 45.44 60.14 45.43L60.56 45.12L60.09 44.9C59.82 44.77 59.55 44.62 59.29 44.45C59.47 44.16 59.83 43.69 60.08 43.37L60.41 42.96L59.89 42.86C59.47 42.79 59.1 42.67 58.81 42.57C59.13 42.24 59.5 41.89 59.5 41.88L59.89 41.52L59.39 41.36C58.87 41.18 58.43 40.95 58.13 40.78C58.29 40.47 58.61 39.96 58.83 39.61L59.13 39.18L58.6 39.13C58.18 39.09 57.8 39.01 57.5 38.93C57.69 38.66 58.14 38.19 58.45 37.87L58.82 37.5L58.32 37.35C57.79 37.2 57.35 36.99 57.05 36.83C57.16 36.53 57.45 35.93 57.66 35.54L57.91 35.08L57.38 35.08C56.96 35.08 56.58 35.04 56.28 35C56.3 34.73 56.5 33.99 56.64 33.52L56.79 33.01L56.27 33.12C55.84 33.2 55.43 33.24 55.11 33.25L55.19 32.98L55.18 32.98C55.32 32.67 55.5 32.3 55.65 32.02L55.9 31.56L55.89 31.57Z" fill="#CBCBCB" fill-opacity="1.000000" fill-rule="nonzero"/>
	<path id="Vector" d="M42.72 17.15C42.72 17.15 42.1 17.79 42.26 19.01C42.43 20.22 43.09 21.9 43 23.07C42.91 24.23 41.84 27.1 41.84 27.1L43.17 29.06L44.99 27.65C44.99 27.65 46.13 23.96 45.98 22.49C45.84 21.01 45.72 17.49 45.72 17.49L42.72 17.15Z" fill="#433709" fill-opacity="1.000000" fill-rule="nonzero"/>
	<path id="Vector" d="M43.9 17.29C43.93 17.99 44.26 20.91 44.39 22.19C44.53 23.66 43.39 27.36 43.39 27.36L42.19 28.05L42.86 29.03L44.68 27.62C44.68 27.62 45.82 23.93 45.67 22.46C45.53 20.98 45.41 17.46 45.41 17.46L43.9 17.29L43.9 17.29Z" fill="#261C02" fill-opacity="1.000000" fill-rule="nonzero"/>
	<path id="Vector" d="M45.72 17.56C45.68 17.95 44.97 18.19 44.12 18.11C43.27 18.03 42.61 17.65 42.65 17.27C42.68 16.88 43.4 16.64 44.25 16.72C45.1 16.8 45.76 17.18 45.72 17.56Z" fill="#FCD3B3" fill-opacity="1.000000" fill-rule="nonzero"/>
	<path id="Vector" d="M42.14 25.58C42.14 25.58 36.27 25.61 31.82 33.44C27.36 41.28 28.08 47.85 31.13 53.51C34.17 59.16 37.66 61.92 43.05 62.32C48.44 62.72 57.18 54.36 57.17 48.59C57.16 41.16 55.15 34.42 53.05 31.29C50.96 28.15 48.04 26.67 46.53 26.08C45.02 25.49 43.41 25.39 43.41 25.39L42.14 25.58L42.14 25.58Z" fill="#4B5B19" fill-opacity="1.000000" fill-rule="nonzero"/>
	<path id="Vector" d="M39.03 24.85C39.03 24.85 40 25.8 40.33 25.96L40.67 26.13L40.01 27.42C40.01 27.42 39.1 26.6 39.11 26.57C39.13 26.54 39.03 24.85 39.03 24.85L39.03 24.85Z" fill="#6B7B3E" fill-opacity="1.000000" fill-rule="nonzero"/>
	<path id="Vector" d="M39.03 24.85C38.73 25.89 38.24 26.64 38.24 26.64L40.01 27.42L39.03 24.85L39.03 24.85Z" fill="#4B5B19" fill-opacity="1.000000" fill-rule="nonzero"/>
	<path id="Vector" d="M36.94 25.57C36.94 25.57 38.11 26.27 38.48 26.35L38.84 26.43L38.5 27.84C38.5 27.84 37.42 27.25 37.43 27.22C37.44 27.19 36.95 25.57 36.95 25.57L36.94 25.57Z" fill="#6B7B3E" fill-opacity="1.000000" fill-rule="nonzero"/>
	<path id="Vector" d="M36.94 25.57C36.89 26.65 36.6 27.5 36.6 27.5L38.5 27.84L36.94 25.57Z" fill="#4B5B19" fill-opacity="1.000000" fill-rule="nonzero"/>
	<path id="Vector" d="M35.33 26.69C35.33 26.69 36.59 27.19 36.97 27.21L37.34 27.24L37.23 28.68C37.23 28.68 36.07 28.27 36.08 28.24C36.08 28.21 35.33 26.69 35.33 26.69L35.33 26.69Z" fill="#6B7B3E" fill-opacity="1.000000" fill-rule="nonzero"/>
	<path id="Vector" d="M35.34 26.69C35.46 27.76 35.29 28.64 35.29 28.64L37.23 28.68L35.33 26.69L35.34 26.69Z" fill="#4B5B19" fill-opacity="1.000000" fill-rule="nonzero"/>
	<path id="Vector" d="M30.87 31.82C30.87 31.82 32.22 31.88 32.58 31.78L32.94 31.68L33.32 33.08C33.32 33.08 32.09 33.08 32.08 33.05C32.07 33.02 30.87 31.82 30.87 31.82L30.87 31.82Z" fill="#6B7B3E" fill-opacity="1.000000" fill-rule="nonzero"/>
	<path id="Vector" d="M30.87 31.82C31.34 32.8 31.47 33.68 31.47 33.68L33.31 33.08L30.87 31.82L30.87 31.82Z" fill="#4B5B19" fill-opacity="1.000000" fill-rule="nonzero"/>
	<path id="Vector" d="M32.03 29.98C32.03 29.98 33.38 30.04 33.74 29.94L34.1 29.84L34.47 31.24C34.47 31.24 33.25 31.24 33.24 31.21C33.23 31.18 32.03 29.98 32.03 29.98L32.03 29.98Z" fill="#6B7B3E" fill-opacity="1.000000" fill-rule="nonzero"/>
	<path id="Vector" d="M32.03 29.98C32.5 30.96 32.63 31.84 32.63 31.84L34.47 31.24L32.03 29.98L32.03 29.98Z" fill="#4B5B19" fill-opacity="1.000000" fill-rule="nonzero"/>
	<path id="Vector" d="M33.55 28.21C33.55 28.21 34.88 28.48 35.25 28.44L35.63 28.39L35.77 29.84C35.77 29.84 34.56 29.64 34.56 29.61C34.56 29.58 33.55 28.21 33.55 28.21L33.55 28.21Z" fill="#6B7B3E" fill-opacity="1.000000" fill-rule="nonzero"/>
	<path id="Vector" d="M33.55 28.21C33.86 29.25 33.86 30.14 33.86 30.14L35.77 29.84L33.55 28.21Z" fill="#4B5B19" fill-opacity="1.000000" fill-rule="nonzero"/>
	<path id="Vector" d="M40.94 24.23C40.94 24.23 41.82 25.26 42.14 25.46L42.46 25.65L41.69 26.88C41.69 26.88 40.85 25.97 40.87 25.95C40.89 25.92 40.94 24.23 40.94 24.23L40.94 24.23Z" fill="#6B7B3E" fill-opacity="1.000000" fill-rule="nonzero"/>
	<path id="Vector" d="M40.94 24.23C40.55 25.24 40 25.94 40 25.94L41.69 26.88L40.94 24.23L40.94 24.23Z" fill="#4B5B19" fill-opacity="1.000000" fill-rule="nonzero"/>
	<path id="Vector" d="M27.68 40.31C27.68 40.31 28.97 39.87 29.26 39.64L29.56 39.41L30.42 40.58C30.42 40.58 29.28 41.03 29.26 41.01C29.25 40.98 27.68 40.31 27.68 40.31Z" fill="#6B7B3E" fill-opacity="1.000000" fill-rule="nonzero"/>
	<path id="Vector" d="M27.68 40.31C28.48 41.05 28.93 41.82 28.93 41.82L30.42 40.58L27.68 40.31Z" fill="#4B5B19" fill-opacity="1.000000" fill-rule="nonzero"/>
	<path id="Vector" d="M28.07 38.39C28.07 38.39 29.35 37.95 29.65 37.72L29.95 37.5L30.81 38.67C30.81 38.67 29.66 39.11 29.65 39.09C29.63 39.06 28.07 38.39 28.07 38.39Z" fill="#6B7B3E" fill-opacity="1.000000" fill-rule="nonzero"/>
	<path id="Vector" d="M28.07 38.39C28.86 39.13 29.32 39.9 29.32 39.9L30.81 38.67L28.07 38.39Z" fill="#4B5B19" fill-opacity="1.000000" fill-rule="nonzero"/>
	<path id="Vector" d="M28.7 36.13C28.7 36.13 30.04 35.88 30.36 35.7L30.69 35.52L31.37 36.8C31.37 36.8 30.17 37.08 30.16 37.05C30.15 37.02 28.7 36.13 28.7 36.13L28.7 36.13Z" fill="#6B7B3E" fill-opacity="1.000000" fill-rule="nonzero"/>
	<path id="Vector" d="M28.7 36.13C29.38 36.98 29.72 37.81 29.72 37.81L31.37 36.8L28.7 36.13Z" fill="#4B5B19" fill-opacity="1.000000" fill-rule="nonzero"/>
	<path id="Vector" d="M29.71 33.99C29.71 33.99 31.06 33.86 31.4 33.71L31.75 33.56L32.3 34.9C32.3 34.9 31.09 35.06 31.08 35.04C31.07 35.01 29.71 33.99 29.71 33.99Z" fill="#6B7B3E" fill-opacity="1.000000" fill-rule="nonzero"/>
	<path id="Vector" d="M29.71 33.99C30.31 34.89 30.56 35.75 30.56 35.75L32.3 34.9L29.71 33.99Z" fill="#4B5B19" fill-opacity="1.000000" fill-rule="nonzero"/>
	<path id="Vector" d="M27.45 42.4C27.45 42.4 28.73 41.96 29.03 41.73L29.33 41.5L30.18 42.67C30.18 42.67 29.04 43.12 29.02 43.09C29.01 43.07 27.45 42.4 27.45 42.4Z" fill="#6B7B3E" fill-opacity="1.000000" fill-rule="nonzero"/>
	<path id="Vector" d="M27.45 42.4C28.24 43.13 28.69 43.9 28.69 43.9L30.18 42.67L27.45 42.4Z" fill="#4B5B19" fill-opacity="1.000000" fill-rule="nonzero"/>
	<path id="Vector" d="M27.13 44.68C27.13 44.68 28.27 43.95 28.51 43.66L28.75 43.37L29.85 44.31C29.85 44.31 28.84 45.01 28.82 44.99C28.8 44.97 27.13 44.68 27.13 44.68L27.13 44.68Z" fill="#6B7B3E" fill-opacity="1.000000" fill-rule="nonzero"/>
	<path id="Vector" d="M27.13 44.68C28.07 45.21 28.69 45.86 28.69 45.86L29.85 44.31L27.13 44.68L27.13 44.68Z" fill="#4B5B19" fill-opacity="1.000000" fill-rule="nonzero"/>
	<path id="Vector" d="M27.39 47.33C27.39 47.33 28.31 46.33 28.47 45.99L28.63 45.65L29.93 46.28C29.93 46.28 29.13 47.21 29.11 47.2C29.08 47.18 27.39 47.33 27.39 47.33Z" fill="#6B7B3E" fill-opacity="1.000000" fill-rule="nonzero"/>
	<path id="Vector" d="M27.39 47.33C28.43 47.6 29.2 48.07 29.2 48.07L29.93 46.28L27.39 47.33Z" fill="#4B5B19" fill-opacity="1.000000" fill-rule="nonzero"/>
	<path id="Vector" d="M27.93 48.87C27.93 48.87 28.99 48.02 29.19 47.71L29.39 47.39L30.59 48.21C30.59 48.21 29.67 49.01 29.65 48.99C29.62 48.98 27.93 48.87 27.93 48.87L27.93 48.87Z" fill="#6B7B3E" fill-opacity="1.000000" fill-rule="nonzero"/>
	<path id="Vector" d="M27.93 48.87C28.92 49.3 29.61 49.87 29.61 49.87L30.6 48.21L27.93 48.87L27.93 48.87Z" fill="#4B5B19" fill-opacity="1.000000" fill-rule="nonzero"/>
	<path id="Vector" d="M28.5 51.2C28.5 51.2 29.33 50.13 29.45 49.77L29.58 49.42L30.94 49.93C30.94 49.93 30.22 50.93 30.19 50.92C30.16 50.91 28.49 51.2 28.49 51.2L28.5 51.2Z" fill="#6B7B3E" fill-opacity="1.000000" fill-rule="nonzero"/>
	<path id="Vector" d="M28.5 51.2C29.56 51.38 30.36 51.78 30.36 51.78L30.93 49.93L28.49 51.2L28.5 51.2Z" fill="#4B5B19" fill-opacity="1.000000" fill-rule="nonzero"/>
	<path id="Vector" d="M29.38 53.41C29.38 53.41 29.91 52.17 29.94 51.79L29.98 51.42L31.42 51.57C31.42 51.57 30.98 52.72 30.95 52.71C30.92 52.71 29.38 53.41 29.38 53.41L29.38 53.41Z" fill="#6B7B3E" fill-opacity="1.000000" fill-rule="nonzero"/>
	<path id="Vector" d="M29.37 53.41C30.45 53.32 31.33 53.5 31.33 53.5L31.42 51.57L29.37 53.41L29.37 53.41Z" fill="#4B5B19" fill-opacity="1.000000" fill-rule="nonzero"/>
	<path id="Vector" d="M30.18 55.11C30.18 55.11 30.95 53.99 31.06 53.63L31.16 53.27L32.55 53.7C32.55 53.7 31.89 54.74 31.86 54.73C31.83 54.72 30.18 55.11 30.18 55.11L30.18 55.11Z" fill="#6B7B3E" fill-opacity="1.000000" fill-rule="nonzero"/>
	<path id="Vector" d="M30.18 55.11C31.26 55.23 32.08 55.58 32.08 55.58L32.55 53.7L30.18 55.11Z" fill="#4B5B19" fill-opacity="1.000000" fill-rule="nonzero"/>
	<path id="Vector" d="M31.28 57.13C31.28 57.13 31.77 55.87 31.79 55.5L31.81 55.12L33.25 55.22C33.25 55.22 32.85 56.38 32.82 56.38C32.79 56.38 31.28 57.13 31.28 57.13Z" fill="#6B7B3E" fill-opacity="1.000000" fill-rule="nonzero"/>
	<path id="Vector" d="M31.27 57.13C32.35 57 33.23 57.16 33.23 57.16L33.25 55.22L31.27 57.13Z" fill="#4B5B19" fill-opacity="1.000000" fill-rule="nonzero"/>
	<path id="Vector" d="M33.06 59.11C33.06 59.11 33.21 57.76 33.13 57.4L33.06 57.03L34.48 56.76C34.48 56.76 34.39 57.98 34.36 57.99C34.33 57.99 33.05 59.11 33.05 59.11L33.06 59.11Z" fill="#6B7B3E" fill-opacity="1.000000" fill-rule="nonzero"/>
	<path id="Vector" d="M33.06 59.11C34.06 58.71 34.95 58.64 34.95 58.64L34.48 56.76L33.06 59.11Z" fill="#4B5B19" fill-opacity="1.000000" fill-rule="nonzero"/>
	<path id="Vector" d="M34.41 60.04C34.41 60.04 34.75 58.72 34.73 58.35L34.71 57.97L36.16 57.92C36.16 57.92 35.89 59.11 35.86 59.12C35.83 59.11 34.41 60.04 34.41 60.04Z" fill="#6B7B3E" fill-opacity="1.000000" fill-rule="nonzero"/>
	<path id="Vector" d="M34.41 60.04C35.46 59.79 36.35 59.84 36.35 59.84L36.16 57.92L34.41 60.03L34.41 60.04Z" fill="#4B5B19" fill-opacity="1.000000" fill-rule="nonzero"/>
	<path id="Vector" d="M36.24 61.57C36.24 61.57 36.28 60.22 36.17 59.86L36.06 59.5L37.46 59.11C37.46 59.11 37.47 60.34 37.44 60.34C37.41 60.35 36.24 61.57 36.24 61.57L36.24 61.57Z" fill="#6B7B3E" fill-opacity="1.000000" fill-rule="nonzero"/>
	<path id="Vector" d="M36.24 61.57C37.21 61.09 38.09 60.94 38.09 60.94L37.46 59.11L36.24 61.57Z" fill="#4B5B19" fill-opacity="1.000000" fill-rule="nonzero"/>
	<path id="Vector" d="M56.88 35.9C56.88 35.9 55.92 36.86 55.75 37.2L55.58 37.53L54.3 36.86C54.3 36.86 55.13 35.96 55.16 35.97C55.18 35.99 56.88 35.9 56.88 35.9Z" fill="#6B7B3E" fill-opacity="1.000000" fill-rule="nonzero"/>
	<path id="Vector" d="M56.88 35.9C55.84 35.59 55.09 35.1 55.09 35.1L54.3 36.86L56.88 35.9L56.88 35.9Z" fill="#4B5B19" fill-opacity="1.000000" fill-rule="nonzero"/>
	<path id="Vector" d="M56 33.58C56 33.58 55.37 34.77 55.31 35.15L55.25 35.52L53.82 35.25C53.82 35.25 54.35 34.14 54.38 34.14C54.41 34.15 56 33.58 56 33.58Z" fill="#6B7B3E" fill-opacity="1.000000" fill-rule="nonzero"/>
	<path id="Vector" d="M56 33.58C54.92 33.58 54.07 33.33 54.07 33.33L53.82 35.24L56 33.58L56 33.58Z" fill="#4B5B19" fill-opacity="1.000000" fill-rule="nonzero"/>
	<path id="Vector" d="M54.93 31.55C54.93 31.55 54.54 32.85 54.55 33.22L54.56 33.6L53.11 33.6C53.11 33.6 53.42 32.42 53.45 32.42C53.48 32.42 54.93 31.55 54.93 31.55L54.93 31.55Z" fill="#6B7B3E" fill-opacity="1.000000" fill-rule="nonzero"/>
	<path id="Vector" d="M54.93 31.55C53.87 31.76 52.98 31.68 52.98 31.68L53.11 33.61L54.93 31.55Z" fill="#4B5B19" fill-opacity="1.000000" fill-rule="nonzero"/>
	<path id="Vector" d="M54.07 33.35C54.07 33.35 53.68 34.65 53.68 35.02L53.69 35.4L52.24 35.41C52.24 35.41 52.55 34.22 52.58 34.22C52.61 34.22 54.07 33.35 54.07 33.35L54.07 33.35Z" fill="#6B7B3E" fill-opacity="1.000000" fill-rule="nonzero"/>
	<path id="Vector" d="M54.07 33.35C53.01 33.56 52.12 33.48 52.12 33.48L52.25 35.41L54.07 33.35Z" fill="#4B5B19" fill-opacity="1.000000" fill-rule="nonzero"/>
	<path id="Vector" d="M54.25 35.14C54.25 35.14 53.86 36.44 53.86 36.81L53.87 37.19L52.42 37.2C52.42 37.2 52.73 36.01 52.76 36.01C52.79 36.01 54.25 35.14 54.25 35.14L54.25 35.14Z" fill="#6B7B3E" fill-opacity="1.000000" fill-rule="nonzero"/>
	<path id="Vector" d="M54.25 35.14C53.18 35.35 52.3 35.27 52.3 35.27L52.42 37.2L54.25 35.14Z" fill="#4B5B19" fill-opacity="1.000000" fill-rule="nonzero"/>
	<path id="Vector" d="M54.57 36.7C54.57 36.7 54.18 38 54.19 38.38L54.2 38.75L52.75 38.76C52.75 38.76 53.06 37.57 53.09 37.57C53.12 37.57 54.57 36.7 54.57 36.7L54.57 36.7Z" fill="#6B7B3E" fill-opacity="1.000000" fill-rule="nonzero"/>
	<path id="Vector" d="M54.57 36.7C53.51 36.92 52.62 36.83 52.62 36.83L52.75 38.76L54.57 36.7Z" fill="#4B5B19" fill-opacity="1.000000" fill-rule="nonzero"/>
	<path id="Vector" d="M53.29 31.51C53.29 31.51 52.9 32.8 52.91 33.18L52.92 33.55L51.47 33.56C51.47 33.56 51.77 32.37 51.8 32.37C51.83 32.38 53.29 31.5 53.29 31.5L53.29 31.51Z" fill="#6B7B3E" fill-opacity="1.000000" fill-rule="nonzero"/>
	<path id="Vector" d="M53.29 31.51C52.23 31.72 51.34 31.63 51.34 31.63L51.47 33.56L53.29 31.51Z" fill="#4B5B19" fill-opacity="1.000000" fill-rule="nonzero"/>
	<path id="Vector" d="M52.14 29.95C52.14 29.95 51.75 31.25 51.76 31.63L51.77 32L50.32 32.01C50.32 32.01 50.63 30.82 50.66 30.82C50.69 30.82 52.14 29.95 52.14 29.95L52.14 29.95Z" fill="#6B7B3E" fill-opacity="1.000000" fill-rule="nonzero"/>
	<path id="Vector" d="M52.14 29.95C51.08 30.17 50.19 30.08 50.19 30.08L50.32 32.01L52.14 29.95Z" fill="#4B5B19" fill-opacity="1.000000" fill-rule="nonzero"/>
	<path id="Vector" d="M53.94 29.95C53.94 29.95 53.3 31.15 53.24 31.52L53.17 31.89L51.75 31.61C51.75 31.61 52.28 30.51 52.31 30.52C52.34 30.52 53.94 29.95 53.94 29.95Z" fill="#6B7B3E" fill-opacity="1.000000" fill-rule="nonzero"/>
	<path id="Vector" d="M53.94 29.95C52.86 29.96 52 29.69 52 29.69L51.75 31.61L53.94 29.95Z" fill="#4B5B19" fill-opacity="1.000000" fill-rule="nonzero"/>
	<path id="Vector" d="M52.63 28.06C52.63 28.06 52.28 29.38 52.3 29.75L52.33 30.12L50.88 30.19C50.88 30.19 51.14 28.99 51.17 28.99C51.2 28.99 52.63 28.06 52.63 28.06Z" fill="#6B7B3E" fill-opacity="1.000000" fill-rule="nonzero"/>
	<path id="Vector" d="M52.63 28.06C51.57 28.32 50.68 28.26 50.68 28.26L50.88 30.19L52.63 28.06Z" fill="#4B5B19" fill-opacity="1.000000" fill-rule="nonzero"/>
	<path id="Vector" d="M50.64 26.3C50.64 26.3 50.63 27.65 50.75 28.01L50.87 28.37L49.48 28.79C49.48 28.79 49.43 27.57 49.46 27.56C49.49 27.55 50.64 26.3 50.64 26.3Z" fill="#6B7B3E" fill-opacity="1.000000" fill-rule="nonzero"/>
	<path id="Vector" d="M50.64 26.3C49.68 26.81 48.8 26.98 48.8 26.98L49.48 28.79L50.64 26.3Z" fill="#4B5B19" fill-opacity="1.000000" fill-rule="nonzero"/>
	<path id="Vector" d="M49.19 25.53C49.19 25.53 48.99 26.87 49.06 27.24L49.12 27.61L47.69 27.83C47.69 27.83 47.82 26.61 47.85 26.61C47.88 26.6 49.19 25.53 49.19 25.53Z" fill="#6B7B3E" fill-opacity="1.000000" fill-rule="nonzero"/>
	<path id="Vector" d="M49.19 25.53C48.17 25.9 47.28 25.94 47.28 25.94L47.69 27.83L49.19 25.53Z" fill="#4B5B19" fill-opacity="1.000000" fill-rule="nonzero"/>
	<path id="Vector" d="M47.09 24.46C47.09 24.46 47.21 25.81 47.36 26.16L47.5 26.5L46.16 27.05C46.16 27.05 46.01 25.83 46.04 25.82C46.07 25.81 47.09 24.46 47.09 24.46Z" fill="#6B7B3E" fill-opacity="1.000000" fill-rule="nonzero"/>
	<path id="Vector" d="M47.09 24.46C46.19 25.05 45.33 25.3 45.33 25.3L46.16 27.05L47.09 24.46L47.09 24.46Z" fill="#4B5B19" fill-opacity="1.000000" fill-rule="nonzero"/>
	<path id="Vector" d="M57.75 52.77C57.75 52.77 56.4 52.92 56.06 53.08L55.72 53.24L55.13 51.91C55.13 51.91 56.35 51.72 56.36 51.75C56.37 51.78 57.75 52.77 57.75 52.77Z" fill="#6B7B3E" fill-opacity="1.000000" fill-rule="nonzero"/>
	<path id="Vector" d="M57.75 52.77C57.13 51.88 56.85 51.03 56.85 51.03L55.13 51.91L57.75 52.77Z" fill="#4B5B19" fill-opacity="1.000000" fill-rule="nonzero"/>
	<path id="Vector" d="M58.36 50.34C58.36 50.34 57.09 50.8 56.8 51.03L56.5 51.27L55.62 50.11C55.62 50.11 56.76 49.64 56.78 49.67C56.79 49.69 58.36 50.33 58.36 50.33L58.36 50.34Z" fill="#6B7B3E" fill-opacity="1.000000" fill-rule="nonzero"/>
	<path id="Vector" d="M58.37 50.34C57.56 49.61 57.09 48.85 57.09 48.85L55.63 50.11L58.37 50.34Z" fill="#4B5B19" fill-opacity="1.000000" fill-rule="nonzero"/>
	<path id="Vector" d="M58.74 47.83C58.74 47.83 57.63 48.6 57.4 48.9L57.18 49.2L56.04 48.3C56.04 48.3 57.02 47.56 57.04 47.58C57.06 47.6 58.74 47.83 58.74 47.83Z" fill="#6B7B3E" fill-opacity="1.000000" fill-rule="nonzero"/>
	<path id="Vector" d="M58.74 47.83C57.78 47.33 57.14 46.71 57.14 46.71L56.03 48.3L58.74 47.83Z" fill="#4B5B19" fill-opacity="1.000000" fill-rule="nonzero"/>
	<path id="Vector" d="M58.84 45.85C58.84 45.85 57.6 46.39 57.32 46.64L57.03 46.89L56.09 45.79C56.09 45.79 57.2 45.26 57.22 45.28C57.24 45.3 58.84 45.86 58.84 45.86L58.84 45.85Z" fill="#6B7B3E" fill-opacity="1.000000" fill-rule="nonzero"/>
	<path id="Vector" d="M58.84 45.85C57.99 45.18 57.48 44.44 57.48 44.44L56.09 45.79L58.84 45.85L58.84 45.85Z" fill="#4B5B19" fill-opacity="1.000000" fill-rule="nonzero"/>
	<path id="Vector" d="M57.24 45.39C57.24 45.39 56 45.93 55.71 46.18L55.43 46.43L54.49 45.33C54.49 45.33 55.6 44.79 55.62 44.82C55.64 44.84 57.24 45.39 57.24 45.39L57.24 45.39Z" fill="#6B7B3E" fill-opacity="1.000000" fill-rule="nonzero"/>
	<path id="Vector" d="M57.24 45.39C56.39 44.72 55.88 43.98 55.88 43.98L54.49 45.33L57.24 45.39Z" fill="#4B5B19" fill-opacity="1.000000" fill-rule="nonzero"/>
	<path id="Vector" d="M55.92 43.98C55.92 43.98 54.67 44.52 54.39 44.77L54.11 45.02L53.17 43.91C53.17 43.91 54.28 43.38 54.29 43.41C54.31 43.43 55.92 43.98 55.92 43.98L55.92 43.98Z" fill="#6B7B3E" fill-opacity="1.000000" fill-rule="nonzero"/>
	<path id="Vector" d="M55.92 43.98C55.07 43.31 54.56 42.57 54.56 42.57L53.17 43.91L55.92 43.98L55.92 43.98Z" fill="#4B5B19" fill-opacity="1.000000" fill-rule="nonzero"/>
	<path id="Vector" d="M57.69 47.16C57.69 47.16 56.45 47.7 56.16 47.95L55.88 48.2L54.94 47.1C54.94 47.1 56.05 46.56 56.07 46.59C56.08 46.61 57.69 47.16 57.69 47.16L57.69 47.16Z" fill="#6B7B3E" fill-opacity="1.000000" fill-rule="nonzero"/>
	<path id="Vector" d="M57.69 47.16C56.84 46.49 56.33 45.75 56.33 45.75L54.94 47.09L57.69 47.16L57.69 47.16Z" fill="#4B5B19" fill-opacity="1.000000" fill-rule="nonzero"/>
	<path id="Vector" d="M57.15 49.31C57.15 49.31 55.91 49.85 55.63 50.1L55.35 50.35L54.4 49.25C54.4 49.25 55.51 48.72 55.53 48.74C55.55 48.76 57.15 49.32 57.15 49.32L57.15 49.31Z" fill="#6B7B3E" fill-opacity="1.000000" fill-rule="nonzero"/>
	<path id="Vector" d="M57.15 49.31C56.31 48.64 55.8 47.9 55.8 47.9L54.41 49.25L57.15 49.31L57.15 49.31Z" fill="#4B5B19" fill-opacity="1.000000" fill-rule="nonzero"/>
	<path id="Vector" d="M56.85 51.31C56.85 51.31 55.61 51.84 55.33 52.1L55.04 52.35L54.1 51.24C54.1 51.24 55.21 50.71 55.23 50.74C55.25 50.76 56.85 51.31 56.85 51.31L56.85 51.31Z" fill="#6B7B3E" fill-opacity="1.000000" fill-rule="nonzero"/>
	<path id="Vector" d="M56.85 51.31C56 50.64 55.5 49.9 55.5 49.9L54.1 51.24L56.85 51.31L56.85 51.31Z" fill="#4B5B19" fill-opacity="1.000000" fill-rule="nonzero"/>
	<path id="Vector" d="M58.66 43.64C58.66 43.64 57.57 44.45 57.36 44.76L57.14 45.07L55.97 44.21C55.97 44.21 56.92 43.44 56.95 43.46C56.97 43.48 58.66 43.64 58.66 43.64L58.66 43.64Z" fill="#6B7B3E" fill-opacity="1.000000" fill-rule="nonzero"/>
	<path id="Vector" d="M58.66 43.64C57.68 43.18 57.01 42.59 57.01 42.59L55.97 44.21L58.66 43.64L58.66 43.64Z" fill="#4B5B19" fill-opacity="1.000000" fill-rule="nonzero"/>
	<path id="Vector" d="M58.54 41.58C58.54 41.58 57.69 42.64 57.56 42.99L57.43 43.34L56.08 42.81C56.08 42.81 56.81 41.82 56.83 41.83C56.86 41.85 58.54 41.58 58.54 41.58Z" fill="#6B7B3E" fill-opacity="1.000000" fill-rule="nonzero"/>
	<path id="Vector" d="M58.54 41.58C57.47 41.38 56.68 40.97 56.68 40.97L56.08 42.81L58.54 41.58L58.54 41.58Z" fill="#4B5B19" fill-opacity="1.000000" fill-rule="nonzero"/>
	<path id="Vector" d="M57.97 40.01C57.97 40.01 56.98 40.94 56.8 41.27L56.62 41.6L55.36 40.88C55.36 40.88 56.23 40 56.25 40.02C56.28 40.04 57.97 40.01 57.97 40.01Z" fill="#6B7B3E" fill-opacity="1.000000" fill-rule="nonzero"/>
	<path id="Vector" d="M57.97 40.01C56.95 39.66 56.22 39.14 56.22 39.14L55.36 40.88L57.97 40.01Z" fill="#4B5B19" fill-opacity="1.000000" fill-rule="nonzero"/>
	<path id="Vector" d="M57.24 37.74C57.24 37.74 56.49 38.87 56.39 39.23L56.29 39.59L54.9 39.18C54.9 39.18 55.53 38.13 55.56 38.14C55.59 38.15 57.24 37.74 57.24 37.74Z" fill="#6B7B3E" fill-opacity="1.000000" fill-rule="nonzero"/>
	<path id="Vector" d="M57.24 37.74C56.16 37.63 55.33 37.29 55.33 37.29L54.9 39.18L57.24 37.74Z" fill="#4B5B19" fill-opacity="1.000000" fill-rule="nonzero"/>
	<path id="Vector" d="M56.25 54.99C56.25 54.99 54.92 54.78 54.55 54.84L54.17 54.9L53.97 53.46C53.97 53.46 55.19 53.61 55.19 53.64C55.2 53.67 56.25 54.99 56.25 54.99L56.25 54.99Z" fill="#6B7B3E" fill-opacity="1.000000" fill-rule="nonzero"/>
	<path id="Vector" d="M56.25 54.99C55.9 53.97 55.87 53.08 55.87 53.08L53.97 53.46L56.25 54.99Z" fill="#4B5B19" fill-opacity="1.000000" fill-rule="nonzero"/>
	<path id="Vector" d="M56.21 38.09C56.21 38.09 55.16 38.95 54.96 39.27L54.75 39.58L53.55 38.78C53.55 38.78 54.47 37.97 54.49 37.98C54.52 38 56.21 38.09 56.21 38.09Z" fill="#6B7B3E" fill-opacity="1.000000" fill-rule="nonzero"/>
	<path id="Vector" d="M56.21 38.09C55.21 37.68 54.52 37.11 54.52 37.11L53.55 38.78L56.21 38.09Z" fill="#4B5B19" fill-opacity="1.000000" fill-rule="nonzero"/>
	<path id="Vector" d="M55.63 35.77C55.63 35.77 54.81 36.85 54.68 37.2L54.56 37.56L53.2 37.05C53.2 37.05 53.9 36.05 53.93 36.06C53.96 36.07 55.63 35.77 55.63 35.77L55.63 35.77Z" fill="#6B7B3E" fill-opacity="1.000000" fill-rule="nonzero"/>
	<path id="Vector" d="M55.63 35.77C54.56 35.6 53.76 35.2 53.76 35.2L53.2 37.05L55.63 35.77Z" fill="#4B5B19" fill-opacity="1.000000" fill-rule="nonzero"/>
	<path id="Vector" d="M55.29 54.96C55.29 54.96 53.94 54.97 53.58 55.09L53.23 55.22L52.78 53.83C52.78 53.83 54.01 53.77 54.02 53.8C54.03 53.83 55.29 54.96 55.29 54.96L55.29 54.96Z" fill="#6B7B3E" fill-opacity="1.000000" fill-rule="nonzero"/>
	<path id="Vector" d="M55.29 54.96C54.77 54.01 54.59 53.13 54.59 53.13L52.78 53.83L55.29 54.96L55.29 54.96Z" fill="#4B5B19" fill-opacity="1.000000" fill-rule="nonzero"/>
	<path id="Vector" d="M56.16 52.61C56.16 52.61 54.85 52.94 54.53 53.14L54.21 53.34L53.46 52.09C53.46 52.09 54.64 51.75 54.66 51.78C54.67 51.8 56.16 52.61 56.16 52.61Z" fill="#6B7B3E" fill-opacity="1.000000" fill-rule="nonzero"/>
	<path id="Vector" d="M56.16 52.61C55.44 51.81 55.06 51 55.06 51L53.46 52.09L56.16 52.61Z" fill="#4B5B19" fill-opacity="1.000000" fill-rule="nonzero"/>
	<path id="Vector" d="M56.81 50.15C56.81 50.15 55.62 50.8 55.36 51.07L55.1 51.35L54.06 50.34C54.06 50.34 55.11 49.71 55.14 49.73C55.16 49.75 56.81 50.15 56.81 50.15L56.81 50.15Z" fill="#6B7B3E" fill-opacity="1.000000" fill-rule="nonzero"/>
	<path id="Vector" d="M56.8 50.15C55.9 49.56 55.33 48.87 55.33 48.87L54.06 50.34L56.8 50.15Z" fill="#4B5B19" fill-opacity="1.000000" fill-rule="nonzero"/>
	<path id="Vector" d="M57.15 48.42C57.15 48.42 55.85 48.82 55.55 49.04L55.24 49.26L54.42 48.06C54.42 48.06 55.58 47.65 55.59 47.68C55.61 47.7 57.15 48.42 57.15 48.42Z" fill="#6B7B3E" fill-opacity="1.000000" fill-rule="nonzero"/>
	<path id="Vector" d="M57.15 48.42C56.37 47.66 55.95 46.88 55.95 46.88L54.42 48.06L57.15 48.42Z" fill="#4B5B19" fill-opacity="1.000000" fill-rule="nonzero"/>
	<path id="Vector" d="M57.2 46.2C57.2 46.2 56.03 46.9 55.79 47.18L55.54 47.46L54.46 46.49C54.46 46.49 55.5 45.82 55.52 45.84C55.54 45.86 57.2 46.2 57.2 46.2L57.2 46.2Z" fill="#6B7B3E" fill-opacity="1.000000" fill-rule="nonzero"/>
	<path id="Vector" d="M57.2 46.2C56.27 45.64 55.68 44.98 55.68 44.98L54.47 46.49L57.2 46.2Z" fill="#4B5B19" fill-opacity="1.000000" fill-rule="nonzero"/>
	<path id="Vector" d="M57.26 43.92C57.26 43.92 56.31 44.88 56.14 45.22L55.97 45.55L54.68 44.88C54.68 44.88 55.51 43.98 55.54 43.99C55.57 44.01 57.26 43.92 57.26 43.92Z" fill="#6B7B3E" fill-opacity="1.000000" fill-rule="nonzero"/>
	<path id="Vector" d="M57.26 43.92C56.22 43.61 55.48 43.12 55.48 43.12L54.68 44.88L57.26 43.92Z" fill="#4B5B19" fill-opacity="1.000000" fill-rule="nonzero"/>
	<path id="Vector" d="M56.87 42.3C56.87 42.3 55.78 43.12 55.57 43.43L55.35 43.73L54.18 42.89C54.18 42.89 55.13 42.11 55.15 42.13C55.18 42.14 56.87 42.3 56.87 42.3Z" fill="#6B7B3E" fill-opacity="1.000000" fill-rule="nonzero"/>
	<path id="Vector" d="M56.87 42.3C55.88 41.85 55.22 41.25 55.22 41.25L54.18 42.89L56.86 42.3L56.87 42.3Z" fill="#4B5B19" fill-opacity="1.000000" fill-rule="nonzero"/>
	<path id="Vector" d="M56.37 39.96C56.37 39.96 55.51 41 55.37 41.35L55.23 41.7L53.89 41.15C53.89 41.15 54.64 40.17 54.67 40.18C54.69 40.2 56.37 39.96 56.37 39.96L56.37 39.96Z" fill="#6B7B3E" fill-opacity="1.000000" fill-rule="nonzero"/>
	<path id="Vector" d="M56.37 39.96C55.31 39.74 54.53 39.32 54.53 39.32L53.89 41.15L56.37 39.96Z" fill="#4B5B19" fill-opacity="1.000000" fill-rule="nonzero"/>
	<path id="Vector" d="M53.57 57.02C53.57 57.02 52.27 56.66 51.89 56.68L51.51 56.7L51.47 55.25C51.47 55.25 52.66 55.52 52.66 55.56C52.66 55.59 53.57 57.02 53.57 57.02L53.57 57.02Z" fill="#6B7B3E" fill-opacity="1.000000" fill-rule="nonzero"/>
	<path id="Vector" d="M53.57 57.02C53.33 55.96 53.39 55.07 53.39 55.07L51.47 55.25L53.57 57.02Z" fill="#4B5B19" fill-opacity="1.000000" fill-rule="nonzero"/>
	<path id="Vector" d="M53.61 35.04C53.61 35.04 52.66 36.01 52.5 36.35L52.33 36.69L51.04 36.03C51.04 36.03 51.86 35.11 51.89 35.13C51.92 35.14 53.61 35.04 53.61 35.04L53.61 35.04Z" fill="#6B7B3E" fill-opacity="1.000000" fill-rule="nonzero"/>
	<path id="Vector" d="M53.61 35.04C52.57 34.74 51.82 34.26 51.82 34.26L51.04 36.03L53.61 35.04Z" fill="#4B5B19" fill-opacity="1.000000" fill-rule="nonzero"/>
	<path id="Vector" d="M52.77 32.8C52.77 32.8 52.07 33.97 51.99 34.33L51.91 34.7L50.5 34.35C50.5 34.35 51.09 33.28 51.12 33.29C51.15 33.29 52.77 32.8 52.77 32.8L52.77 32.8Z" fill="#6B7B3E" fill-opacity="1.000000" fill-rule="nonzero"/>
	<path id="Vector" d="M52.77 32.8C51.69 32.75 50.84 32.45 50.84 32.45L50.5 34.35L52.77 32.8L52.77 32.8Z" fill="#4B5B19" fill-opacity="1.000000" fill-rule="nonzero"/>
	<path id="Vector" d="M54.62 51.9C54.62 51.9 53.28 52.07 52.94 52.23L52.6 52.4L52 51.07C52 51.07 53.21 50.87 53.22 50.9C53.24 50.93 54.62 51.9 54.62 51.9Z" fill="#6B7B3E" fill-opacity="1.000000" fill-rule="nonzero"/>
	<path id="Vector" d="M54.62 51.9C54 51.02 53.71 50.17 53.71 50.17L52 51.07L54.62 51.9L54.62 51.9Z" fill="#4B5B19" fill-opacity="1.000000" fill-rule="nonzero"/>
	<path id="Vector" d="M55.22 49.47C55.22 49.47 53.95 49.95 53.66 50.18L53.36 50.42L52.48 49.27C52.48 49.27 53.61 48.79 53.63 48.82C53.64 48.84 55.22 49.47 55.22 49.47Z" fill="#6B7B3E" fill-opacity="1.000000" fill-rule="nonzero"/>
	<path id="Vector" d="M55.22 49.47C54.41 48.76 53.94 48 53.94 48L52.48 49.27L55.22 49.47Z" fill="#4B5B19" fill-opacity="1.000000" fill-rule="nonzero"/>
	<path id="Vector" d="M55.58 46.96C55.58 46.96 54.47 47.74 54.25 48.04L54.02 48.34L52.87 47.45C52.87 47.45 53.85 46.71 53.87 46.73C53.9 46.75 55.58 46.96 55.58 46.96L55.58 46.96Z" fill="#6B7B3E" fill-opacity="1.000000" fill-rule="nonzero"/>
	<path id="Vector" d="M55.58 46.96C54.61 46.47 53.96 45.85 53.96 45.85L52.87 47.45L55.58 46.96Z" fill="#4B5B19" fill-opacity="1.000000" fill-rule="nonzero"/>
	<path id="Vector" d="M55.72 45.2C55.72 45.2 54.48 45.75 54.2 46L53.92 46.25L52.97 45.15C52.97 45.15 54.07 44.61 54.09 44.64C54.11 44.66 55.72 45.2 55.72 45.2Z" fill="#6B7B3E" fill-opacity="1.000000" fill-rule="nonzero"/>
	<path id="Vector" d="M55.72 45.2C54.86 44.53 54.35 43.8 54.35 43.8L52.97 45.15L55.72 45.2Z" fill="#4B5B19" fill-opacity="1.000000" fill-rule="nonzero"/>
	<path id="Vector" d="M55.52 42.99C55.52 42.99 54.44 43.81 54.22 44.12L54.01 44.43L52.83 43.58C52.83 43.58 53.78 42.8 53.8 42.82C53.83 42.84 55.52 42.99 55.52 42.99L55.52 42.99Z" fill="#6B7B3E" fill-opacity="1.000000" fill-rule="nonzero"/>
	<path id="Vector" d="M55.52 42.99C54.53 42.54 53.86 41.94 53.86 41.94L52.83 43.58L55.52 42.99Z" fill="#4B5B19" fill-opacity="1.000000" fill-rule="nonzero"/>
	<path id="Vector" d="M55.32 40.71C55.32 40.71 54.48 41.77 54.35 42.13L54.22 42.48L52.87 41.96C52.87 41.96 53.59 40.97 53.62 40.98C53.64 40.99 55.32 40.71 55.32 40.71L55.32 40.71Z" fill="#6B7B3E" fill-opacity="1.000000" fill-rule="nonzero"/>
	<path id="Vector" d="M55.32 40.71C54.25 40.52 53.45 40.12 53.45 40.12L52.87 41.96L55.32 40.71Z" fill="#4B5B19" fill-opacity="1.000000" fill-rule="nonzero"/>
	<path id="Vector" d="M54.74 39.15C54.74 39.15 53.76 40.08 53.58 40.41L53.4 40.75L52.14 40.04C52.14 40.04 52.99 39.16 53.02 39.17C53.04 39.19 54.74 39.15 54.74 39.15L54.74 39.15Z" fill="#6B7B3E" fill-opacity="1.000000" fill-rule="nonzero"/>
	<path id="Vector" d="M54.74 39.15C53.71 38.81 52.98 38.29 52.98 38.29L52.14 40.04L54.74 39.15Z" fill="#4B5B19" fill-opacity="1.000000" fill-rule="nonzero"/>
	<path id="Vector" d="M53.99 36.88C53.99 36.88 53.24 38.01 53.15 38.38L53.05 38.74L51.66 38.34C51.66 38.34 52.28 37.29 52.31 37.3C52.34 37.31 53.99 36.88 53.99 36.88Z" fill="#6B7B3E" fill-opacity="1.000000" fill-rule="nonzero"/>
	<path id="Vector" d="M53.98 36.88C52.91 36.79 52.08 36.45 52.08 36.45L51.66 38.34L53.98 36.88Z" fill="#4B5B19" fill-opacity="1.000000" fill-rule="nonzero"/>
	<path id="Vector" d="M53.15 54.14C53.15 54.14 51.81 53.94 51.44 54L51.07 54.07L50.85 52.63C50.85 52.63 52.07 52.77 52.08 52.8C52.08 52.83 53.15 54.14 53.15 54.14Z" fill="#6B7B3E" fill-opacity="1.000000" fill-rule="nonzero"/>
	<path id="Vector" d="M53.15 54.14C52.79 53.12 52.75 52.23 52.75 52.23L50.85 52.63L53.15 54.15L53.15 54.14Z" fill="#4B5B19" fill-opacity="1.000000" fill-rule="nonzero"/>
	<path id="Vector" d="M52.46 34.31C52.46 34.31 51.51 35.28 51.34 35.62L51.18 35.96L49.89 35.29C49.89 35.29 50.71 34.38 50.74 34.4C50.76 34.41 52.46 34.31 52.46 34.31L52.46 34.31Z" fill="#6B7B3E" fill-opacity="1.000000" fill-rule="nonzero"/>
	<path id="Vector" d="M52.46 34.31C51.42 34.01 50.67 33.52 50.67 33.52L49.89 35.29L52.46 34.31Z" fill="#4B5B19" fill-opacity="1.000000" fill-rule="nonzero"/>
	<path id="Vector" d="M51.62 32.07C51.62 32.07 50.92 33.23 50.84 33.6L50.75 33.97L49.34 33.62C49.34 33.62 49.93 32.54 49.96 32.55C49.99 32.56 51.62 32.07 51.62 32.07L51.62 32.07Z" fill="#6B7B3E" fill-opacity="1.000000" fill-rule="nonzero"/>
	<path id="Vector" d="M51.62 32.07C50.54 32.02 49.69 31.72 49.69 31.72L49.34 33.62L51.62 32.07L51.62 32.07Z" fill="#4B5B19" fill-opacity="1.000000" fill-rule="nonzero"/>
	<path id="Vector" d="M53.47 51.17C53.47 51.17 52.13 51.34 51.79 51.5L51.45 51.66L50.85 50.34C50.85 50.34 52.06 50.14 52.07 50.17C52.08 50.19 53.47 51.17 53.47 51.17Z" fill="#6B7B3E" fill-opacity="1.000000" fill-rule="nonzero"/>
	<path id="Vector" d="M53.47 51.17C52.85 50.29 52.56 49.44 52.56 49.44L50.85 50.34L53.47 51.17L53.47 51.17Z" fill="#4B5B19" fill-opacity="1.000000" fill-rule="nonzero"/>
	<path id="Vector" d="M54.07 48.74C54.07 48.74 52.8 49.21 52.51 49.45L52.21 49.68L51.33 48.53C51.33 48.53 52.46 48.06 52.48 48.08C52.49 48.11 54.07 48.74 54.07 48.74Z" fill="#6B7B3E" fill-opacity="1.000000" fill-rule="nonzero"/>
	<path id="Vector" d="M54.07 48.74C53.25 48.02 52.78 47.26 52.78 47.26L51.33 48.53L54.07 48.74Z" fill="#4B5B19" fill-opacity="1.000000" fill-rule="nonzero"/>
	<path id="Vector" d="M54.42 46.22C54.42 46.22 53.32 47 53.09 47.3L52.87 47.61L51.72 46.72C51.72 46.72 52.7 45.97 52.72 45.99C52.74 46.01 54.43 46.22 54.43 46.22L54.42 46.22Z" fill="#6B7B3E" fill-opacity="1.000000" fill-rule="nonzero"/>
	<path id="Vector" d="M54.42 46.22C53.46 45.74 52.81 45.12 52.81 45.12L51.72 46.72L54.42 46.22Z" fill="#4B5B19" fill-opacity="1.000000" fill-rule="nonzero"/>
	<path id="Vector" d="M54.57 44.46C54.57 44.46 53.33 45.01 53.05 45.26L52.77 45.51L51.82 44.42C51.82 44.42 52.92 43.88 52.94 43.9C52.96 43.93 54.57 44.46 54.57 44.46Z" fill="#6B7B3E" fill-opacity="1.000000" fill-rule="nonzero"/>
	<path id="Vector" d="M54.57 44.46C53.71 43.8 53.2 43.07 53.2 43.07L51.82 44.42L54.57 44.46Z" fill="#4B5B19" fill-opacity="1.000000" fill-rule="nonzero"/>
	<path id="Vector" d="M54.37 42.26C54.37 42.26 53.29 43.08 53.07 43.38L52.86 43.69L51.68 42.85C51.68 42.85 52.63 42.07 52.65 42.09C52.68 42.11 54.37 42.26 54.37 42.26L54.37 42.26Z" fill="#6B7B3E" fill-opacity="1.000000" fill-rule="nonzero"/>
	<path id="Vector" d="M54.37 42.26C53.38 41.81 52.71 41.21 52.71 41.21L51.68 42.85L54.37 42.26Z" fill="#4B5B19" fill-opacity="1.000000" fill-rule="nonzero"/>
	<path id="Vector" d="M53.3 47.53C53.3 47.53 52.19 48.31 51.97 48.61L51.74 48.91L50.59 48.02C50.59 48.02 51.57 47.28 51.59 47.3C51.62 47.32 53.3 47.53 53.3 47.53L53.3 47.53Z" fill="#6B7B3E" fill-opacity="1.000000" fill-rule="nonzero"/>
	<path id="Vector" d="M53.3 47.53C52.33 47.04 51.68 46.42 51.68 46.42L50.59 48.02L53.3 47.53Z" fill="#4B5B19" fill-opacity="1.000000" fill-rule="nonzero"/>
	<path id="Vector" d="M51.81 49.1C51.81 49.1 50.7 49.88 50.48 50.18L50.25 50.48L49.11 49.6C49.11 49.6 50.08 48.85 50.1 48.87C50.13 48.89 51.81 49.1 51.81 49.1L51.81 49.1Z" fill="#6B7B3E" fill-opacity="1.000000" fill-rule="nonzero"/>
	<path id="Vector" d="M51.81 49.1C50.84 48.61 50.2 48 50.2 48L49.11 49.6L51.81 49.1Z" fill="#4B5B19" fill-opacity="1.000000" fill-rule="nonzero"/>
	<path id="Vector" d="M53.44 45.77C53.44 45.77 52.2 46.32 51.92 46.57L51.64 46.82L50.69 45.72C50.69 45.72 51.79 45.18 51.81 45.21C51.83 45.23 53.44 45.77 53.44 45.77Z" fill="#6B7B3E" fill-opacity="1.000000" fill-rule="nonzero"/>
	<path id="Vector" d="M53.44 45.77C52.58 45.1 52.07 44.37 52.07 44.37L50.69 45.72L53.44 45.77Z" fill="#4B5B19" fill-opacity="1.000000" fill-rule="nonzero"/>
	<path id="Vector" d="M53.24 43.56C53.24 43.56 52.16 44.38 51.94 44.69L51.73 45L50.55 44.15C50.55 44.15 51.5 43.37 51.52 43.39C51.55 43.41 53.24 43.56 53.24 43.56L53.24 43.56Z" fill="#6B7B3E" fill-opacity="1.000000" fill-rule="nonzero"/>
	<path id="Vector" d="M53.24 43.56C52.25 43.11 51.58 42.52 51.58 42.52L50.55 44.15L53.24 43.56L53.24 43.56Z" fill="#4B5B19" fill-opacity="1.000000" fill-rule="nonzero"/>
	<path id="Vector" d="M54.16 39.98C54.16 39.98 53.33 41.04 53.2 41.39L53.07 41.75L51.72 41.23C51.72 41.23 52.43 40.23 52.46 40.25C52.49 40.26 54.16 39.98 54.16 39.98L54.16 39.98Z" fill="#6B7B3E" fill-opacity="1.000000" fill-rule="nonzero"/>
	<path id="Vector" d="M54.16 39.98C53.1 39.79 52.3 39.38 52.3 39.38L51.72 41.23L54.16 39.98Z" fill="#4B5B19" fill-opacity="1.000000" fill-rule="nonzero"/>
	<path id="Vector" d="M53.59 38.42C53.59 38.42 52.61 39.35 52.43 39.68L52.25 40.01L50.99 39.3C50.99 39.3 51.84 38.42 51.87 38.44C51.89 38.45 53.59 38.42 53.59 38.42Z" fill="#6B7B3E" fill-opacity="1.000000" fill-rule="nonzero"/>
	<path id="Vector" d="M53.59 38.42C52.56 38.08 51.83 37.56 51.83 37.56L50.99 39.3L53.59 38.42Z" fill="#4B5B19" fill-opacity="1.000000" fill-rule="nonzero"/>
	<path id="Vector" d="M52.83 36.15C52.83 36.15 52.09 37.28 52 37.64L51.9 38.01L50.5 37.61C50.5 37.61 51.13 36.55 51.16 36.56C51.19 36.57 52.83 36.15 52.83 36.15Z" fill="#6B7B3E" fill-opacity="1.000000" fill-rule="nonzero"/>
	<path id="Vector" d="M52.83 36.15C51.75 36.05 50.92 35.72 50.92 35.72L50.5 37.61L52.83 36.15Z" fill="#4B5B19" fill-opacity="1.000000" fill-rule="nonzero"/>
	<path id="Vector" d="M52 53.41C52 53.41 50.66 53.21 50.29 53.27L49.92 53.33L49.7 51.9C49.7 51.9 50.92 52.04 50.93 52.06C50.93 52.1 52 53.41 52 53.41Z" fill="#6B7B3E" fill-opacity="1.000000" fill-rule="nonzero"/>
	<path id="Vector" d="M52 53.41C51.64 52.39 51.6 51.5 51.6 51.5L49.7 51.9L52 53.41Z" fill="#4B5B19" fill-opacity="1.000000" fill-rule="nonzero"/>
	<path id="Vector" d="M40.98 63.34C40.98 63.34 40.26 62.19 39.98 61.95L39.69 61.71L40.63 60.61C40.63 60.61 41.33 61.63 41.31 61.65C41.28 61.67 40.98 63.34 40.98 63.34L40.98 63.34Z" fill="#6B7B3E" fill-opacity="1.000000" fill-rule="nonzero"/>
	<path id="Vector" d="M40.98 63.34C41.52 62.4 42.17 61.79 42.17 61.79L40.63 60.62L40.98 63.34L40.98 63.34Z" fill="#4B5B19" fill-opacity="1.000000" fill-rule="nonzero"/>
	<path id="Vector" d="M43.35 63.41C43.35 63.41 42.39 62.45 42.05 62.29L41.71 62.12L42.38 60.83C42.38 60.83 43.29 61.66 43.28 61.69C43.26 61.71 43.35 63.41 43.35 63.41Z" fill="#6B7B3E" fill-opacity="1.000000" fill-rule="nonzero"/>
	<path id="Vector" d="M43.35 63.41C43.66 62.37 44.15 61.62 44.15 61.62L42.39 60.83L43.35 63.41L43.35 63.41Z" fill="#4B5B19" fill-opacity="1.000000" fill-rule="nonzero"/>
	<path id="Vector" d="M45.5 63.1C45.5 63.1 44.32 62.42 43.95 62.35L43.59 62.27L43.91 60.86C43.91 60.86 45 61.43 44.99 61.46C44.98 61.49 45.5 63.1 45.5 63.1L45.5 63.1Z" fill="#6B7B3E" fill-opacity="1.000000" fill-rule="nonzero"/>
	<path id="Vector" d="M45.5 63.1C45.53 62.02 45.82 61.17 45.82 61.17L43.91 60.86L45.5 63.1L45.5 63.1Z" fill="#4B5B19" fill-opacity="1.000000" fill-rule="nonzero"/>
	<path id="Vector" d="M47.18 62.96C47.18 62.96 46 62.3 45.63 62.22L45.26 62.15L45.56 60.73C45.56 60.73 46.66 61.29 46.65 61.32C46.64 61.35 47.18 62.96 47.18 62.96L47.18 62.96Z" fill="#6B7B3E" fill-opacity="1.000000" fill-rule="nonzero"/>
	<path id="Vector" d="M47.18 62.96C47.2 61.88 47.48 61.03 47.48 61.03L45.57 60.73L47.18 62.96Z" fill="#4B5B19" fill-opacity="1.000000" fill-rule="nonzero"/>
	<path id="Vector" d="M50.57 61.15C50.57 61.15 49.38 60.52 49.01 60.45L48.64 60.39L48.91 58.97C48.91 58.97 50.01 59.5 50.01 59.53C50 59.56 50.57 61.15 50.57 61.15L50.57 61.15Z" fill="#6B7B3E" fill-opacity="1.000000" fill-rule="nonzero"/>
	<path id="Vector" d="M50.58 61.15C50.57 60.07 50.83 59.21 50.83 59.21L48.91 58.96L50.58 61.15Z" fill="#4B5B19" fill-opacity="1.000000" fill-rule="nonzero"/>
	<path id="Vector" d="M49.21 62.24C49.21 62.24 48.01 61.6 47.64 61.54L47.27 61.47L47.54 60.05C47.54 60.05 48.65 60.58 48.64 60.61C48.63 60.64 49.21 62.24 49.21 62.24L49.21 62.24Z" fill="#6B7B3E" fill-opacity="1.000000" fill-rule="nonzero"/>
	<path id="Vector" d="M49.21 62.24C49.2 61.16 49.46 60.3 49.46 60.3L47.54 60.05L49.21 62.24Z" fill="#4B5B19" fill-opacity="1.000000" fill-rule="nonzero"/>
	<path id="Vector" d="M52.41 59.67C52.41 59.67 51.09 59.36 50.72 59.39L50.35 59.42L50.25 57.97C50.25 57.97 51.45 58.21 51.46 58.24C51.46 58.27 52.41 59.67 52.41 59.67L52.41 59.67Z" fill="#6B7B3E" fill-opacity="1.000000" fill-rule="nonzero"/>
	<path id="Vector" d="M52.41 59.67C52.14 58.62 52.17 57.73 52.17 57.73L50.25 57.97L52.41 59.67Z" fill="#4B5B19" fill-opacity="1.000000" fill-rule="nonzero"/>
	<path id="Vector" d="M53.76 58.14C53.76 58.14 52.42 57.93 52.05 58L51.68 58.06L51.46 56.62C51.46 56.62 52.68 56.76 52.69 56.79C52.69 56.82 53.76 58.14 53.76 58.14Z" fill="#6B7B3E" fill-opacity="1.000000" fill-rule="nonzero"/>
	<path id="Vector" d="M53.76 58.14C53.4 57.12 53.36 56.22 53.36 56.22L51.46 56.62L53.76 58.14Z" fill="#4B5B19" fill-opacity="1.000000" fill-rule="nonzero"/>
	<path id="Vector" d="M55.04 56.71C55.04 56.71 53.7 56.51 53.33 56.58L52.96 56.64L52.73 55.21C52.73 55.21 53.95 55.34 53.96 55.37C53.96 55.4 55.04 56.71 55.04 56.71L55.04 56.71Z" fill="#6B7B3E" fill-opacity="1.000000" fill-rule="nonzero"/>
	<path id="Vector" d="M55.04 56.71C54.67 55.69 54.62 54.8 54.62 54.8L52.73 55.21L55.04 56.71Z" fill="#4B5B19" fill-opacity="1.000000" fill-rule="nonzero"/>
	<path id="Vector" d="M38.47 62.72C38.47 62.72 38.16 61.4 37.97 61.08L37.77 60.76L39.03 60.03C39.03 60.03 39.35 61.21 39.33 61.23C39.3 61.24 38.47 62.72 38.47 62.72L38.47 62.72Z" fill="#6B7B3E" fill-opacity="1.000000" fill-rule="nonzero"/>
	<path id="Vector" d="M38.47 62.72C39.28 62.01 40.1 61.64 40.1 61.64L39.03 60.03L38.47 62.72L38.47 62.72Z" fill="#4B5B19" fill-opacity="1.000000" fill-rule="nonzero"/>
	<path id="Vector" d="M43.36 22.32L44.71 22.62L44.73 22L43.36 22.32Z" fill="#261C02" fill-opacity="1.000000" fill-rule="nonzero"/>
	<path id="Vector" d="M42.85 19.33C42.85 19.33 43.48 19.64 44.12 19.62C44.76 19.61 44.71 19.35 44.71 19.35L44.63 18.91C44.63 18.91 44.36 19.18 43.96 19.26C43.56 19.35 42.85 19.33 42.85 19.33L42.85 19.33Z" fill="#261C02" fill-opacity="1.000000" fill-rule="nonzero"/>
	<path id="Vector" d="M43.34 21.56C43.34 21.56 43.97 21.87 44.61 21.85C45.25 21.84 45.19 21.58 45.19 21.58L45.11 21.14C45.11 21.14 44.85 21.41 44.45 21.49C44.05 21.58 43.34 21.56 43.34 21.56L43.34 21.56Z" fill="#261C02" fill-opacity="1.000000" fill-rule="nonzero"/>
	<path id="Vector" d="M48.93 60.76C48.93 60.76 47.73 60.13 47.36 60.06L46.99 60L47.26 58.58C47.26 58.58 48.37 59.11 48.36 59.14C48.36 59.17 48.93 60.77 48.93 60.77L48.93 60.76Z" fill="#6B7B3E" fill-opacity="1.000000" fill-rule="nonzero"/>
	<path id="Vector" d="M48.93 60.76C48.92 59.68 49.18 58.82 49.18 58.82L47.26 58.58L48.93 60.76Z" fill="#4B5B19" fill-opacity="1.000000" fill-rule="nonzero"/>
	<path id="Vector" d="M47.43 61.46C47.43 61.46 46.23 60.82 45.86 60.76L45.49 60.69L45.76 59.27C45.76 59.27 46.87 59.8 46.86 59.83C46.86 59.86 47.43 61.46 47.43 61.46L47.43 61.46Z" fill="#6B7B3E" fill-opacity="1.000000" fill-rule="nonzero"/>
	<path id="Vector" d="M47.43 61.46C47.42 60.37 47.68 59.52 47.68 59.52L45.76 59.27L47.43 61.45L47.43 61.46Z" fill="#4B5B19" fill-opacity="1.000000" fill-rule="nonzero"/>
	<path id="Vector" d="M45.69 61.8C45.69 61.8 44.49 61.16 44.12 61.1L43.75 61.03L44.02 59.61C44.02 59.61 45.13 60.14 45.12 60.17C45.12 60.2 45.69 61.8 45.69 61.8L45.69 61.8Z" fill="#6B7B3E" fill-opacity="1.000000" fill-rule="nonzero"/>
	<path id="Vector" d="M45.69 61.8C45.69 60.71 45.94 59.86 45.94 59.86L44.02 59.61L45.69 61.8Z" fill="#4B5B19" fill-opacity="1.000000" fill-rule="nonzero"/>
	<path id="Vector" d="M43.99 62C43.99 62 42.79 61.37 42.42 61.3L42.05 61.24L42.33 59.82C42.33 59.82 43.43 60.35 43.42 60.38C43.42 60.41 43.99 62.01 43.99 62.01L43.99 62Z" fill="#6B7B3E" fill-opacity="1.000000" fill-rule="nonzero"/>
	<path id="Vector" d="M43.99 62C43.99 60.92 44.25 60.07 44.25 60.07L42.33 59.82L43.99 62Z" fill="#4B5B19" fill-opacity="1.000000" fill-rule="nonzero"/>
	<path id="Vector" d="M41.84 62.01C41.84 62.01 41.15 60.85 40.86 60.6L40.58 60.35L41.55 59.27C41.55 59.27 42.22 60.3 42.2 60.32C42.18 60.35 41.84 62.01 41.84 62.01L41.84 62.01Z" fill="#6B7B3E" fill-opacity="1.000000" fill-rule="nonzero"/>
	<path id="Vector" d="M41.84 62.01C42.4 61.08 43.07 60.48 43.07 60.48L41.55 59.27L41.84 62.01Z" fill="#4B5B19" fill-opacity="1.000000" fill-rule="nonzero"/>
	<path id="Vector" d="M51.79 51.45C51.79 51.45 50.46 51.69 50.13 51.87L49.8 52.05L49.13 50.77C49.13 50.77 50.33 50.5 50.34 50.53C50.36 50.55 51.79 51.45 51.79 51.45L51.79 51.45Z" fill="#6B7B3E" fill-opacity="1.000000" fill-rule="nonzero"/>
	<path id="Vector" d="M51.79 51.45C51.12 50.6 50.79 49.77 50.79 49.77L49.13 50.77L51.79 51.45Z" fill="#4B5B19" fill-opacity="1.000000" fill-rule="nonzero"/>
	<path id="Vector" d="M51.59 47.01C51.59 47.01 50.39 47.63 50.12 47.9L49.86 48.17L48.84 47.13C48.84 47.13 49.91 46.53 49.93 46.55C49.95 46.57 51.59 47.01 51.59 47.01L51.59 47.01Z" fill="#6B7B3E" fill-opacity="1.000000" fill-rule="nonzero"/>
	<path id="Vector" d="M51.59 47.01C50.7 46.4 50.14 45.7 50.14 45.7L48.84 47.13L51.59 47.01Z" fill="#4B5B19" fill-opacity="1.000000" fill-rule="nonzero"/>
	<path id="Vector" d="M51.66 43.08C51.66 43.08 50.46 43.7 50.2 43.97L49.93 44.24L48.92 43.2C48.92 43.2 49.99 42.6 50 42.62C50.03 42.64 51.66 43.08 51.66 43.08L51.66 43.08Z" fill="#6B7B3E" fill-opacity="1.000000" fill-rule="nonzero"/>
	<path id="Vector" d="M51.66 43.08C50.77 42.47 50.21 41.77 50.21 41.77L48.91 43.2L51.66 43.08Z" fill="#4B5B19" fill-opacity="1.000000" fill-rule="nonzero"/>
	<path id="Vector" d="M51.66 40.52C51.66 40.52 50.46 41.14 50.19 41.41L49.93 41.68L48.91 40.64C48.91 40.64 49.98 40.04 50 40.06C50.02 40.08 51.66 40.52 51.66 40.52L51.66 40.52Z" fill="#6B7B3E" fill-opacity="1.000000" fill-rule="nonzero"/>
	<path id="Vector" d="M51.66 40.52C50.77 39.91 50.21 39.21 50.21 39.21L48.91 40.64L51.66 40.52Z" fill="#4B5B19" fill-opacity="1.000000" fill-rule="nonzero"/>
	<path id="Vector" d="M52.16 42.06C52.16 42.06 50.95 42.68 50.69 42.95L50.43 43.21L49.41 42.18C49.41 42.18 50.48 41.57 50.5 41.59C50.52 41.62 52.16 42.05 52.16 42.05L52.16 42.06Z" fill="#6B7B3E" fill-opacity="1.000000" fill-rule="nonzero"/>
	<path id="Vector" d="M52.16 42.06C51.27 41.44 50.71 40.74 50.71 40.74L49.41 42.18L52.16 42.06Z" fill="#4B5B19" fill-opacity="1.000000" fill-rule="nonzero"/>
	<path id="Vector" d="M51.71 38.55C51.71 38.55 50.51 39.17 50.25 39.44L49.98 39.71L48.97 38.67C48.97 38.67 50.03 38.06 50.05 38.09C50.08 38.11 51.71 38.55 51.71 38.55L51.71 38.55Z" fill="#6B7B3E" fill-opacity="1.000000" fill-rule="nonzero"/>
	<path id="Vector" d="M51.71 38.55C50.82 37.94 50.26 37.24 50.26 37.24L48.96 38.67L51.71 38.55Z" fill="#4B5B19" fill-opacity="1.000000" fill-rule="nonzero"/>
	<path id="Vector" d="M51.59 36.57C51.59 36.57 50.38 37.19 50.12 37.46L49.86 37.73L48.84 36.69C48.84 36.69 49.91 36.08 49.93 36.11C49.95 36.13 51.59 36.57 51.59 36.57L51.59 36.57Z" fill="#6B7B3E" fill-opacity="1.000000" fill-rule="nonzero"/>
	<path id="Vector" d="M51.59 36.57C50.7 35.95 50.14 35.26 50.14 35.26L48.84 36.69L51.59 36.57Z" fill="#4B5B19" fill-opacity="1.000000" fill-rule="nonzero"/>
	<path id="Vector" d="M50.05 53.15C50.05 53.15 48.71 53.39 48.38 53.57L48.05 53.75L47.38 52.47C47.38 52.47 48.58 52.2 48.59 52.23C48.61 52.25 50.05 53.15 50.05 53.15L50.05 53.15Z" fill="#6B7B3E" fill-opacity="1.000000" fill-rule="nonzero"/>
	<path id="Vector" d="M50.05 53.15C49.37 52.31 49.05 51.47 49.05 51.47L47.38 52.47L50.05 53.15Z" fill="#4B5B19" fill-opacity="1.000000" fill-rule="nonzero"/>
	<path id="Vector" d="M47.04 57.74C47.04 57.74 45.77 57.25 45.4 57.24L45.02 57.22L45.12 55.77C45.12 55.77 46.28 56.16 46.28 56.19C46.27 56.22 47.04 57.74 47.04 57.74L47.04 57.74Z" fill="#6B7B3E" fill-opacity="1.000000" fill-rule="nonzero"/>
	<path id="Vector" d="M47.04 57.74C46.9 56.66 47.05 55.78 47.05 55.78L45.12 55.77L47.04 57.74L47.04 57.74Z" fill="#4B5B19" fill-opacity="1.000000" fill-rule="nonzero"/>
	<path id="Vector" d="M44.35 60.34C44.35 60.34 43.08 59.86 42.71 59.84L42.33 59.83L42.43 58.38C42.43 58.38 43.59 58.77 43.59 58.8C43.58 58.83 44.35 60.34 44.35 60.34L44.35 60.34Z" fill="#6B7B3E" fill-opacity="1.000000" fill-rule="nonzero"/>
	<path id="Vector" d="M44.35 60.34C44.21 59.27 44.36 58.39 44.36 58.39L42.43 58.38L44.35 60.34Z" fill="#4B5B19" fill-opacity="1.000000" fill-rule="nonzero"/>
	<path id="Vector" d="M49.13 54.95C49.13 54.95 47.79 55.19 47.46 55.37L47.13 55.55L46.47 54.26C46.47 54.26 47.66 54 47.68 54.02C47.69 54.05 49.13 54.95 49.13 54.95L49.13 54.95Z" fill="#6B7B3E" fill-opacity="1.000000" fill-rule="nonzero"/>
	<path id="Vector" d="M49.13 54.95C48.46 54.1 48.13 53.27 48.13 53.27L46.47 54.26L49.13 54.95Z" fill="#4B5B19" fill-opacity="1.000000" fill-rule="nonzero"/>
	<path id="Vector" d="M48.28 56.35C48.28 56.35 46.94 56.59 46.61 56.77L46.28 56.95L45.61 55.66C45.61 55.66 46.81 55.4 46.83 55.43C46.84 55.45 48.28 56.35 48.28 56.35L48.28 56.35Z" fill="#6B7B3E" fill-opacity="1.000000" fill-rule="nonzero"/>
	<path id="Vector" d="M48.27 56.35C47.6 55.5 47.27 54.67 47.27 54.67L45.61 55.66L48.27 56.35L48.27 56.35Z" fill="#4B5B19" fill-opacity="1.000000" fill-rule="nonzero"/>
	<path id="Vector" d="M50.31 59.36C50.31 59.36 49.11 58.73 48.74 58.66L48.37 58.6L48.64 57.18C48.64 57.18 49.75 57.71 49.74 57.74C49.73 57.77 50.31 59.37 50.31 59.37L50.31 59.36Z" fill="#6B7B3E" fill-opacity="1.000000" fill-rule="nonzero"/>
	<path id="Vector" d="M50.31 59.36C50.3 58.28 50.56 57.43 50.56 57.43L48.64 57.18L50.31 59.36Z" fill="#4B5B19" fill-opacity="1.000000" fill-rule="nonzero"/>
	<path id="Vector" d="M51.9 58.13C51.9 58.13 50.57 57.85 50.2 57.89L49.83 57.93L49.7 56.48C49.7 56.48 50.91 56.69 50.91 56.72C50.91 56.75 51.9 58.13 51.9 58.13Z" fill="#6B7B3E" fill-opacity="1.000000" fill-rule="nonzero"/>
	<path id="Vector" d="M51.9 58.13C51.6 57.09 51.61 56.2 51.61 56.2L49.7 56.48L51.9 58.13Z" fill="#4B5B19" fill-opacity="1.000000" fill-rule="nonzero"/>
	<path id="Vector" d="M52.08 56.54C52.08 56.54 50.75 56.26 50.38 56.3L50 56.34L49.88 54.89C49.88 54.89 51.09 55.1 51.09 55.13C51.09 55.16 52.08 56.54 52.08 56.54L52.08 56.54Z" fill="#6B7B3E" fill-opacity="1.000000" fill-rule="nonzero"/>
	<path id="Vector" d="M52.08 56.54C51.78 55.5 51.79 54.61 51.79 54.61L49.88 54.89L52.08 56.54Z" fill="#4B5B19" fill-opacity="1.000000" fill-rule="nonzero"/>
	<path id="Vector" d="M54.07 53.39C54.07 53.39 52.75 53.11 52.37 53.15L52 53.19L51.87 51.74C51.87 51.74 53.08 51.95 53.08 51.98C53.09 52.01 54.07 53.39 54.07 53.39Z" fill="#6B7B3E" fill-opacity="1.000000" fill-rule="nonzero"/>
	<path id="Vector" d="M54.07 53.39C53.77 52.35 53.79 51.46 53.79 51.46L51.87 51.74L54.07 53.39Z" fill="#4B5B19" fill-opacity="1.000000" fill-rule="nonzero"/>
	<path id="Vector" d="M52.98 55.36C52.98 55.36 51.65 55.07 51.28 55.11L50.9 55.15L50.78 53.71C50.78 53.71 51.99 53.92 51.99 53.95C51.99 53.98 52.98 55.36 52.98 55.36Z" fill="#6B7B3E" fill-opacity="1.000000" fill-rule="nonzero"/>
	<path id="Vector" d="M52.97 55.36C52.68 54.32 52.69 53.42 52.69 53.42L50.78 53.71L52.97 55.36Z" fill="#4B5B19" fill-opacity="1.000000" fill-rule="nonzero"/>
	<path id="Vector" d="M51 54.91C51 54.91 49.67 54.62 49.3 54.66L48.92 54.7L48.8 53.26C48.8 53.26 50 53.47 50.01 53.5C50.01 53.53 51 54.91 51 54.91Z" fill="#6B7B3E" fill-opacity="1.000000" fill-rule="nonzero"/>
	<path id="Vector" d="M50.99 54.91C50.7 53.87 50.71 52.97 50.71 52.97L48.8 53.26L50.99 54.91Z" fill="#4B5B19" fill-opacity="1.000000" fill-rule="nonzero"/>
	<path id="Vector" d="M50.29 56.68C50.29 56.68 48.96 56.4 48.59 56.44L48.21 56.48L48.09 55.03C48.09 55.03 49.3 55.24 49.3 55.27C49.3 55.3 50.29 56.68 50.29 56.68L50.29 56.68Z" fill="#6B7B3E" fill-opacity="1.000000" fill-rule="nonzero"/>
	<path id="Vector" d="M50.28 56.68C49.99 55.64 50 54.75 50 54.75L48.09 55.03L50.28 56.68Z" fill="#4B5B19" fill-opacity="1.000000" fill-rule="nonzero"/>
	<path id="Vector" d="M49.36 58.18C49.36 58.18 48.03 57.9 47.66 57.94L47.29 57.98L47.16 56.53C47.16 56.53 48.37 56.74 48.37 56.77C48.37 56.8 49.36 58.18 49.36 58.18Z" fill="#6B7B3E" fill-opacity="1.000000" fill-rule="nonzero"/>
	<path id="Vector" d="M49.36 58.18C49.06 57.14 49.07 56.25 49.07 56.25L47.16 56.53L49.36 58.18Z" fill="#4B5B19" fill-opacity="1.000000" fill-rule="nonzero"/>
	<path id="Vector" d="M47.8 59.85C47.8 59.85 46.57 59.27 46.2 59.23L45.83 59.19L46.02 57.75C46.02 57.75 47.15 58.22 47.15 58.25C47.14 58.28 47.8 59.84 47.8 59.84L47.8 59.85Z" fill="#6B7B3E" fill-opacity="1.000000" fill-rule="nonzero"/>
	<path id="Vector" d="M47.8 59.85C47.74 58.77 47.95 57.9 47.95 57.9L46.02 57.75L47.8 59.85L47.8 59.85Z" fill="#4B5B19" fill-opacity="1.000000" fill-rule="nonzero"/>
	<path id="Vector" d="M46.47 60.61C46.47 60.61 45.25 60.03 44.87 59.99L44.5 59.95L44.69 58.51C44.69 58.51 45.83 58.98 45.82 59.01C45.82 59.04 46.47 60.61 46.47 60.61L46.47 60.61Z" fill="#6B7B3E" fill-opacity="1.000000" fill-rule="nonzero"/>
	<path id="Vector" d="M46.47 60.61C46.41 59.53 46.63 58.66 46.63 58.66L44.7 58.51L46.47 60.61L46.47 60.61Z" fill="#4B5B19" fill-opacity="1.000000" fill-rule="nonzero"/>
	<path id="Vector" d="M35.81 28.26C35.81 28.26 36.97 28.72 37.32 28.74L37.66 28.76L37.56 30.1C37.56 30.1 36.49 29.72 36.49 29.69C36.5 29.66 35.81 28.26 35.81 28.26L35.81 28.26Z" fill="#6B7B3E" fill-opacity="1.000000" fill-rule="nonzero"/>
	<path id="Vector" d="M35.81 28.26C35.92 29.25 35.77 30.06 35.77 30.06L37.56 30.1L35.81 28.26L35.81 28.26Z" fill="#4B5B19" fill-opacity="1.000000" fill-rule="nonzero"/>
	<path id="Vector" d="M31.69 33C31.69 33 32.94 33.05 33.27 32.95L33.6 32.86L33.94 34.15C33.94 34.15 32.81 34.15 32.81 34.12C32.8 34.1 31.69 33 31.69 33Z" fill="#6B7B3E" fill-opacity="1.000000" fill-rule="nonzero"/>
	<path id="Vector" d="M31.69 33C32.12 33.9 32.25 34.71 32.25 34.71L33.94 34.16L31.69 33Z" fill="#4B5B19" fill-opacity="1.000000" fill-rule="nonzero"/>
	<path id="Vector" d="M32.76 31.3C32.76 31.3 34.01 31.35 34.34 31.26L34.68 31.16L35.02 32.46C35.02 32.46 33.88 32.45 33.88 32.43C33.87 32.4 32.76 31.3 32.76 31.3Z" fill="#6B7B3E" fill-opacity="1.000000" fill-rule="nonzero"/>
	<path id="Vector" d="M32.76 31.3C33.19 32.2 33.32 33.01 33.32 33.01L35.01 32.46L32.76 31.3Z" fill="#4B5B19" fill-opacity="1.000000" fill-rule="nonzero"/>
	<path id="Vector" d="M34.16 29.66C34.16 29.66 35.39 29.91 35.74 29.87L36.08 29.83L36.21 31.16C36.21 31.16 35.09 30.98 35.09 30.95C35.09 30.93 34.16 29.66 34.16 29.66L34.16 29.66Z" fill="#6B7B3E" fill-opacity="1.000000" fill-rule="nonzero"/>
	<path id="Vector" d="M34.16 29.66C34.45 30.62 34.45 31.44 34.45 31.44L36.21 31.16L34.16 29.66Z" fill="#4B5B19" fill-opacity="1.000000" fill-rule="nonzero"/>
	<path id="Vector" d="M28.75 40.83C28.75 40.83 29.93 40.42 30.21 40.21L30.48 40L31.27 41.08C31.27 41.08 30.22 41.49 30.2 41.47C30.19 41.45 28.75 40.83 28.75 40.83Z" fill="#6B7B3E" fill-opacity="1.000000" fill-rule="nonzero"/>
	<path id="Vector" d="M28.75 40.83C29.48 41.51 29.9 42.22 29.9 42.22L31.27 41.08L28.75 40.83Z" fill="#4B5B19" fill-opacity="1.000000" fill-rule="nonzero"/>
	<path id="Vector" d="M29.1 39.06C29.1 39.06 30.29 38.65 30.56 38.44L30.84 38.23L31.63 39.31C31.63 39.31 30.58 39.72 30.56 39.7C30.54 39.68 29.1 39.06 29.1 39.06Z" fill="#6B7B3E" fill-opacity="1.000000" fill-rule="nonzero"/>
	<path id="Vector" d="M29.1 39.06C29.84 39.74 30.25 40.45 30.25 40.45L31.63 39.31L29.1 39.06Z" fill="#4B5B19" fill-opacity="1.000000" fill-rule="nonzero"/>
	<path id="Vector" d="M29.69 36.97C29.69 36.97 30.92 36.74 31.22 36.57L31.53 36.41L32.15 37.59C32.15 37.59 31.05 37.84 31.03 37.82C31.02 37.79 29.69 36.97 29.69 36.97L29.69 36.97Z" fill="#6B7B3E" fill-opacity="1.000000" fill-rule="nonzero"/>
	<path id="Vector" d="M29.69 36.97C30.32 37.75 30.62 38.52 30.62 38.52L32.15 37.59L29.69 36.97Z" fill="#4B5B19" fill-opacity="1.000000" fill-rule="nonzero"/>
	<path id="Vector" d="M30.62 34.99C30.62 34.99 31.86 34.88 32.18 34.74L32.5 34.6L33.01 35.84C33.01 35.84 31.89 35.99 31.88 35.96C31.87 35.93 30.62 34.99 30.62 34.99Z" fill="#6B7B3E" fill-opacity="1.000000" fill-rule="nonzero"/>
	<path id="Vector" d="M30.62 34.99C31.17 35.83 31.41 36.62 31.41 36.62L33.01 35.84L30.62 34.99Z" fill="#4B5B19" fill-opacity="1.000000" fill-rule="nonzero"/>
	<path id="Vector" d="M28.53 42.76C28.53 42.76 29.71 42.35 29.99 42.14L30.26 41.93L31.06 43.01C31.06 43.01 30 43.42 29.99 43.4C29.97 43.37 28.53 42.76 28.53 42.76Z" fill="#6B7B3E" fill-opacity="1.000000" fill-rule="nonzero"/>
	<path id="Vector" d="M28.53 42.76C29.26 43.43 29.68 44.15 29.68 44.15L31.06 43.01L28.53 42.76Z" fill="#4B5B19" fill-opacity="1.000000" fill-rule="nonzero"/>
	<path id="Vector" d="M28.24 44.86C28.24 44.86 29.29 44.19 29.51 43.92L29.73 43.65L30.75 44.52C30.75 44.52 29.82 45.17 29.8 45.15C29.78 45.13 28.24 44.86 28.24 44.86L28.24 44.86Z" fill="#6B7B3E" fill-opacity="1.000000" fill-rule="nonzero"/>
	<path id="Vector" d="M28.24 44.86C29.1 45.35 29.68 45.95 29.68 45.95L30.75 44.52L28.24 44.86L28.24 44.86Z" fill="#4B5B19" fill-opacity="1.000000" fill-rule="nonzero"/>
	<path id="Vector" d="M28.48 47.31C28.48 47.31 29.33 46.39 29.47 46.07L29.62 45.76L30.82 46.34C30.82 46.34 30.08 47.2 30.06 47.19C30.04 47.17 28.48 47.31 28.48 47.31Z" fill="#6B7B3E" fill-opacity="1.000000" fill-rule="nonzero"/>
	<path id="Vector" d="M28.48 47.31C29.44 47.56 30.14 47.99 30.14 47.99L30.82 46.34L28.48 47.31Z" fill="#4B5B19" fill-opacity="1.000000" fill-rule="nonzero"/>
	<path id="Vector" d="M28.98 48.73C28.98 48.73 29.95 47.95 30.14 47.66L30.33 47.37L31.44 48.12C31.44 48.12 30.58 48.86 30.56 48.84C30.54 48.83 28.98 48.73 28.98 48.73Z" fill="#6B7B3E" fill-opacity="1.000000" fill-rule="nonzero"/>
	<path id="Vector" d="M28.98 48.73C29.9 49.12 30.53 49.65 30.53 49.65L31.44 48.12L28.98 48.73Z" fill="#4B5B19" fill-opacity="1.000000" fill-rule="nonzero"/>
	<path id="Vector" d="M29.5 50.88C29.5 50.88 30.27 49.89 30.38 49.56L30.5 49.24L31.75 49.71C31.75 49.71 31.09 50.63 31.07 50.62C31.04 50.61 29.5 50.88 29.5 50.88Z" fill="#6B7B3E" fill-opacity="1.000000" fill-rule="nonzero"/>
	<path id="Vector" d="M29.5 50.88C30.48 51.05 31.22 51.42 31.22 51.42L31.75 49.71L29.5 50.88Z" fill="#4B5B19" fill-opacity="1.000000" fill-rule="nonzero"/>
	<path id="Vector" d="M30.31 52.92C30.31 52.92 30.8 51.77 30.83 51.43L30.86 51.08L32.19 51.22C32.19 51.22 31.79 52.28 31.76 52.28C31.73 52.27 30.31 52.92 30.31 52.92L30.31 52.92Z" fill="#6B7B3E" fill-opacity="1.000000" fill-rule="nonzero"/>
	<path id="Vector" d="M30.31 52.92C31.31 52.84 32.11 53.01 32.11 53.01L32.19 51.22L30.31 52.92L30.31 52.92Z" fill="#4B5B19" fill-opacity="1.000000" fill-rule="nonzero"/>
	<path id="Vector" d="M31.05 54.49C31.05 54.49 31.76 53.46 31.86 53.12L31.96 52.79L33.24 53.19C33.24 53.19 32.63 54.15 32.6 54.14C32.58 54.13 31.05 54.49 31.05 54.49L31.05 54.49Z" fill="#6B7B3E" fill-opacity="1.000000" fill-rule="nonzero"/>
	<path id="Vector" d="M31.05 54.49C32.05 54.6 32.8 54.93 32.8 54.93L33.24 53.19L31.05 54.49Z" fill="#4B5B19" fill-opacity="1.000000" fill-rule="nonzero"/>
	<path id="Vector" d="M32.06 56.36C32.06 56.36 32.52 55.19 32.54 54.84L32.55 54.5L33.89 54.59C33.89 54.59 33.52 55.67 33.49 55.66C33.47 55.66 32.07 56.36 32.07 56.36L32.06 56.36Z" fill="#6B7B3E" fill-opacity="1.000000" fill-rule="nonzero"/>
	<path id="Vector" d="M32.06 56.36C33.06 56.24 33.87 56.38 33.87 56.38L33.89 54.59L32.06 56.36Z" fill="#4B5B19" fill-opacity="1.000000" fill-rule="nonzero"/>
	<path id="Vector" d="M33.71 58.18C33.71 58.18 33.85 56.94 33.78 56.6L33.71 56.26L35.03 56.02C35.03 56.02 34.94 57.14 34.91 57.15C34.89 57.15 33.71 58.18 33.71 58.18L33.71 58.18Z" fill="#6B7B3E" fill-opacity="1.000000" fill-rule="nonzero"/>
	<path id="Vector" d="M33.71 58.18C34.64 57.81 35.46 57.75 35.46 57.75L35.03 56.01L33.71 58.18Z" fill="#4B5B19" fill-opacity="1.000000" fill-rule="nonzero"/>
	<path id="Vector" d="M34.95 59.03C34.95 59.03 35.28 57.83 35.26 57.48L35.24 57.13L36.58 57.08C36.58 57.08 36.33 58.19 36.3 58.19C36.27 58.19 34.95 59.03 34.95 59.03Z" fill="#6B7B3E" fill-opacity="1.000000" fill-rule="nonzero"/>
	<path id="Vector" d="M34.95 59.03C35.93 58.81 36.75 58.86 36.75 58.86L36.57 57.08L34.95 59.03Z" fill="#4B5B19" fill-opacity="1.000000" fill-rule="nonzero"/>
	<path id="Vector" d="M36.65 60.46C36.65 60.46 36.68 59.21 36.58 58.87L36.48 58.54L37.77 58.18C37.77 58.18 37.78 59.31 37.76 59.32C37.73 59.33 36.65 60.46 36.65 60.46L36.65 60.46Z" fill="#6B7B3E" fill-opacity="1.000000" fill-rule="nonzero"/>
	<path id="Vector" d="M36.65 60.46C37.54 60.01 38.35 59.87 38.35 59.87L37.77 58.18L36.65 60.46Z" fill="#4B5B19" fill-opacity="1.000000" fill-rule="nonzero"/>
	<path id="Vector" d="M38.71 61.52C38.71 61.52 38.42 60.3 38.24 60L38.06 59.71L39.22 59.03C39.22 59.03 39.52 60.12 39.49 60.14C39.47 60.15 38.71 61.52 38.71 61.52L38.71 61.52Z" fill="#6B7B3E" fill-opacity="1.000000" fill-rule="nonzero"/>
	<path id="Vector" d="M38.71 61.52C39.46 60.86 40.21 60.52 40.21 60.52L39.22 59.03L38.71 61.52L38.71 61.52Z" fill="#4B5B19" fill-opacity="1.000000" fill-rule="nonzero"/>
	<path id="Vector" d="M37.11 28.36C37.11 28.36 38.27 28.83 38.62 28.85L38.96 28.87L38.86 30.2C38.86 30.2 37.79 29.83 37.79 29.8C37.79 29.77 37.11 28.36 37.11 28.36L37.11 28.36Z" fill="#6B7B3E" fill-opacity="1.000000" fill-rule="nonzero"/>
	<path id="Vector" d="M37.11 28.36C37.22 29.36 37.07 30.17 37.07 30.17L38.86 30.2L37.11 28.36L37.11 28.36Z" fill="#4B5B19" fill-opacity="1.000000" fill-rule="nonzero"/>
	<path id="Vector" d="M32.99 33.1C32.99 33.1 34.24 33.16 34.57 33.06L34.9 32.97L35.25 34.26C35.25 34.26 34.11 34.26 34.1 34.23C34.1 34.2 32.99 33.1 32.99 33.1Z" fill="#6B7B3E" fill-opacity="1.000000" fill-rule="nonzero"/>
	<path id="Vector" d="M32.99 33.1C33.42 34 33.55 34.82 33.55 34.82L35.24 34.26L32.99 33.1Z" fill="#4B5B19" fill-opacity="1.000000" fill-rule="nonzero"/>
	<path id="Vector" d="M34.06 31.41C34.06 31.41 35.31 31.46 35.64 31.36L35.98 31.27L36.32 32.56C36.32 32.56 35.18 32.56 35.18 32.53C35.17 32.51 34.06 31.41 34.06 31.41Z" fill="#6B7B3E" fill-opacity="1.000000" fill-rule="nonzero"/>
	<path id="Vector" d="M34.06 31.41C34.49 32.31 34.62 33.12 34.62 33.12L36.31 32.56L34.06 31.41Z" fill="#4B5B19" fill-opacity="1.000000" fill-rule="nonzero"/>
	<path id="Vector" d="M35.46 29.77C35.46 29.77 36.69 30.02 37.03 29.98L37.38 29.94L37.51 31.27C37.51 31.27 36.39 31.09 36.39 31.06C36.39 31.03 35.46 29.77 35.46 29.77L35.46 29.77Z" fill="#6B7B3E" fill-opacity="1.000000" fill-rule="nonzero"/>
	<path id="Vector" d="M35.46 29.77C35.75 30.73 35.75 31.55 35.75 31.55L37.51 31.27L35.46 29.77Z" fill="#4B5B19" fill-opacity="1.000000" fill-rule="nonzero"/>
	<path id="Vector" d="M30.05 40.94C30.05 40.94 31.23 40.53 31.5 40.32L31.78 40.11L32.57 41.19C32.57 41.19 31.52 41.6 31.5 41.58C31.49 41.56 30.05 40.94 30.05 40.94Z" fill="#6B7B3E" fill-opacity="1.000000" fill-rule="nonzero"/>
	<path id="Vector" d="M30.05 40.94C30.78 41.62 31.2 42.33 31.2 42.33L32.57 41.19L30.05 40.94Z" fill="#4B5B19" fill-opacity="1.000000" fill-rule="nonzero"/>
	<path id="Vector" d="M30.4 39.17C30.4 39.17 31.58 38.76 31.86 38.55L32.14 38.34L32.93 39.42C32.93 39.42 31.87 39.83 31.86 39.81C31.84 39.78 30.4 39.17 30.4 39.17Z" fill="#6B7B3E" fill-opacity="1.000000" fill-rule="nonzero"/>
	<path id="Vector" d="M30.4 39.17C31.14 39.85 31.55 40.56 31.55 40.56L32.93 39.42L30.4 39.17Z" fill="#4B5B19" fill-opacity="1.000000" fill-rule="nonzero"/>
	<path id="Vector" d="M30.99 37.08C30.99 37.08 32.22 36.85 32.52 36.68L32.83 36.51L33.45 37.7C33.45 37.7 32.34 37.95 32.33 37.93C32.32 37.9 30.99 37.08 30.99 37.08L30.99 37.08Z" fill="#6B7B3E" fill-opacity="1.000000" fill-rule="nonzero"/>
	<path id="Vector" d="M30.99 37.08C31.62 37.86 31.92 38.62 31.92 38.62L33.45 37.7L30.99 37.08Z" fill="#4B5B19" fill-opacity="1.000000" fill-rule="nonzero"/>
	<path id="Vector" d="M31.92 35.1C31.92 35.1 33.16 34.98 33.48 34.85L33.8 34.71L34.31 35.94C34.31 35.94 33.19 36.09 33.18 36.07C33.17 36.04 31.92 35.1 31.92 35.1L31.92 35.1Z" fill="#6B7B3E" fill-opacity="1.000000" fill-rule="nonzero"/>
	<path id="Vector" d="M31.92 35.1C32.47 35.93 32.71 36.72 32.71 36.72L34.31 35.94L31.92 35.1L31.92 35.1Z" fill="#4B5B19" fill-opacity="1.000000" fill-rule="nonzero"/>
	<path id="Vector" d="M29.83 42.86C29.83 42.86 31.01 42.45 31.29 42.24L31.56 42.03L32.35 43.11C32.35 43.11 31.3 43.53 31.28 43.5C31.27 43.48 29.83 42.86 29.83 42.86Z" fill="#6B7B3E" fill-opacity="1.000000" fill-rule="nonzero"/>
	<path id="Vector" d="M29.83 42.86C30.56 43.54 30.98 44.25 30.98 44.25L32.35 43.11L29.83 42.86Z" fill="#4B5B19" fill-opacity="1.000000" fill-rule="nonzero"/>
	<path id="Vector" d="M29.53 44.97C29.53 44.97 30.59 44.3 30.81 44.03L31.03 43.76L32.05 44.63C32.05 44.63 31.12 45.27 31.1 45.25C31.08 45.24 29.53 44.97 29.53 44.97L29.53 44.97Z" fill="#6B7B3E" fill-opacity="1.000000" fill-rule="nonzero"/>
	<path id="Vector" d="M29.53 44.97C30.4 45.46 30.98 46.06 30.98 46.06L32.05 44.63L29.53 44.97L29.53 44.97Z" fill="#4B5B19" fill-opacity="1.000000" fill-rule="nonzero"/>
	<path id="Vector" d="M30.6 46.01C30.6 46.01 31.65 45.34 31.87 45.07L32.09 44.8L33.11 45.67C33.11 45.67 32.18 46.31 32.16 46.3C32.14 46.28 30.6 46.01 30.6 46.01L30.6 46.01Z" fill="#6B7B3E" fill-opacity="1.000000" fill-rule="nonzero"/>
	<path id="Vector" d="M30.6 46.01C31.47 46.5 32.04 47.1 32.04 47.1L33.11 45.67L30.6 46.01L30.6 46.01Z" fill="#4B5B19" fill-opacity="1.000000" fill-rule="nonzero"/>
	<path id="Vector" d="M31.08 43.98C31.08 43.98 32.14 43.31 32.36 43.04L32.58 42.77L33.6 43.64C33.6 43.64 32.66 44.28 32.64 44.26C32.62 44.24 31.08 43.98 31.08 43.98L31.08 43.98Z" fill="#6B7B3E" fill-opacity="1.000000" fill-rule="nonzero"/>
	<path id="Vector" d="M31.08 43.98C31.95 44.47 32.52 45.06 32.52 45.06L33.6 43.64L31.08 43.98L31.08 43.98Z" fill="#4B5B19" fill-opacity="1.000000" fill-rule="nonzero"/>
	<path id="Vector" d="M31.37 41.86C31.37 41.86 32.43 41.19 32.65 40.92L32.87 40.65L33.89 41.52C33.89 41.52 32.96 42.16 32.94 42.14C32.91 42.13 31.37 41.86 31.37 41.86Z" fill="#6B7B3E" fill-opacity="1.000000" fill-rule="nonzero"/>
	<path id="Vector" d="M31.37 41.86C32.24 42.35 32.81 42.95 32.81 42.95L33.89 41.52L31.37 41.86L31.37 41.86Z" fill="#4B5B19" fill-opacity="1.000000" fill-rule="nonzero"/>
	<path id="Vector" d="M32.2 38.77C32.2 38.77 33.42 38.47 33.71 38.29L34.01 38.11L34.7 39.25C34.7 39.25 33.61 39.57 33.59 39.54C33.58 39.52 32.2 38.77 32.2 38.77Z" fill="#6B7B3E" fill-opacity="1.000000" fill-rule="nonzero"/>
	<path id="Vector" d="M32.2 38.77C32.87 39.51 33.22 40.26 33.22 40.26L34.7 39.25L32.2 38.77Z" fill="#4B5B19" fill-opacity="1.000000" fill-rule="nonzero"/>
	<path id="Vector" d="M32.68 36.52C32.68 36.52 33.89 36.22 34.19 36.04L34.48 35.85L35.17 37C35.17 37 34.08 37.31 34.07 37.29C34.05 37.26 32.68 36.52 32.68 36.52Z" fill="#6B7B3E" fill-opacity="1.000000" fill-rule="nonzero"/>
	<path id="Vector" d="M32.68 36.52C33.35 37.26 33.7 38.01 33.7 38.01L35.17 37L32.68 36.52Z" fill="#4B5B19" fill-opacity="1.000000" fill-rule="nonzero"/>
	<path id="Vector" d="M29.78 47.41C29.78 47.41 30.63 46.5 30.77 46.18L30.92 45.87L32.12 46.45C32.12 46.45 31.39 47.31 31.36 47.29C31.34 47.28 29.78 47.41 29.78 47.41Z" fill="#6B7B3E" fill-opacity="1.000000" fill-rule="nonzero"/>
	<path id="Vector" d="M29.78 47.41C30.74 47.67 31.44 48.1 31.44 48.1L32.12 46.45L29.78 47.41Z" fill="#4B5B19" fill-opacity="1.000000" fill-rule="nonzero"/>
	<path id="Vector" d="M30.28 48.84C30.28 48.84 31.25 48.06 31.44 47.76L31.63 47.47L32.74 48.22C32.74 48.22 31.89 48.97 31.86 48.95C31.84 48.94 30.28 48.84 30.28 48.84Z" fill="#6B7B3E" fill-opacity="1.000000" fill-rule="nonzero"/>
	<path id="Vector" d="M30.28 48.84C31.2 49.23 31.83 49.76 31.83 49.76L32.74 48.22L30.28 48.84Z" fill="#4B5B19" fill-opacity="1.000000" fill-rule="nonzero"/>
	<path id="Vector" d="M30.8 50.99C30.8 50.99 31.57 50 31.68 49.67L31.8 49.35L33.05 49.82C33.05 49.82 32.39 50.74 32.36 50.73C32.34 50.72 30.8 50.99 30.8 50.99Z" fill="#6B7B3E" fill-opacity="1.000000" fill-rule="nonzero"/>
	<path id="Vector" d="M30.8 50.99C31.78 51.15 32.52 51.52 32.52 51.52L33.05 49.82L30.8 50.99Z" fill="#4B5B19" fill-opacity="1.000000" fill-rule="nonzero"/>
	<path id="Vector" d="M31.61 53.03C31.61 53.03 32.1 51.88 32.13 51.54L32.16 51.19L33.5 51.33C33.5 51.33 33.09 52.39 33.06 52.39C33.03 52.38 31.61 53.03 31.61 53.03L31.61 53.03Z" fill="#6B7B3E" fill-opacity="1.000000" fill-rule="nonzero"/>
	<path id="Vector" d="M31.61 53.03C32.61 52.95 33.41 53.12 33.41 53.12L33.5 51.33L31.61 53.03L31.61 53.03Z" fill="#4B5B19" fill-opacity="1.000000" fill-rule="nonzero"/>
	<path id="Vector" d="M32.35 54.59C32.35 54.59 33.06 53.56 33.16 53.23L33.26 52.9L34.54 53.3C34.54 53.3 33.93 54.26 33.9 54.25C33.88 54.24 32.35 54.59 32.35 54.59L32.35 54.59Z" fill="#6B7B3E" fill-opacity="1.000000" fill-rule="nonzero"/>
	<path id="Vector" d="M32.35 54.59C33.34 54.71 34.1 55.03 34.1 55.03L34.54 53.3L32.35 54.59Z" fill="#4B5B19" fill-opacity="1.000000" fill-rule="nonzero"/>
	<path id="Vector" d="M33.36 56.46C33.36 56.46 33.82 55.3 33.83 54.95L33.85 54.6L35.19 54.7C35.19 54.7 34.82 55.77 34.79 55.77C34.76 55.77 33.36 56.46 33.36 56.46L33.36 56.46Z" fill="#6B7B3E" fill-opacity="1.000000" fill-rule="nonzero"/>
	<path id="Vector" d="M33.36 56.46C34.35 56.34 35.17 56.49 35.17 56.49L35.19 54.7L33.36 56.46Z" fill="#4B5B19" fill-opacity="1.000000" fill-rule="nonzero"/>
	<path id="Vector" d="M35.01 58.29C35.01 58.29 35.15 57.05 35.08 56.71L35.01 56.37L36.33 56.12C36.33 56.12 36.24 57.25 36.21 57.26C36.19 57.26 35.01 58.29 35.01 58.29L35.01 58.29Z" fill="#6B7B3E" fill-opacity="1.000000" fill-rule="nonzero"/>
	<path id="Vector" d="M35 58.29C35.93 57.92 36.76 57.85 36.76 57.85L36.33 56.12L35 58.29Z" fill="#4B5B19" fill-opacity="1.000000" fill-rule="nonzero"/>
	<path id="Vector" d="M36.25 59.14C36.25 59.14 36.58 57.93 36.56 57.59L36.53 57.24L37.87 57.19C37.87 57.19 37.63 58.29 37.6 58.29C37.57 58.29 36.25 59.14 36.25 59.14Z" fill="#6B7B3E" fill-opacity="1.000000" fill-rule="nonzero"/>
	<path id="Vector" d="M36.25 59.14C37.23 58.91 38.05 58.97 38.05 58.97L37.87 57.19L36.25 59.14Z" fill="#4B5B19" fill-opacity="1.000000" fill-rule="nonzero"/>
	<path id="Vector" d="M37.95 60.56C37.95 60.56 37.98 59.31 37.88 58.98L37.78 58.65L39.07 58.29C39.07 58.29 39.08 59.42 39.06 59.43C39.03 59.43 37.95 60.56 37.95 60.56L37.95 60.56Z" fill="#6B7B3E" fill-opacity="1.000000" fill-rule="nonzero"/>
	<path id="Vector" d="M37.95 60.56C38.84 60.12 39.65 59.98 39.65 59.98L39.07 58.29L37.95 60.56Z" fill="#4B5B19" fill-opacity="1.000000" fill-rule="nonzero"/>
	<path id="Vector" d="M40.01 61.62C40.01 61.62 39.72 60.41 39.54 60.11L39.36 59.81L40.52 59.14C40.52 59.14 40.82 60.23 40.79 60.24C40.77 60.26 40.01 61.63 40.01 61.63L40.01 61.62Z" fill="#6B7B3E" fill-opacity="1.000000" fill-rule="nonzero"/>
	<path id="Vector" d="M40.01 61.62C40.76 60.97 41.51 60.63 41.51 60.63L40.52 59.14L40.01 61.63L40.01 61.62Z" fill="#4B5B19" fill-opacity="1.000000" fill-rule="nonzero"/>
	<path id="Vector" d="M31.62 47.65C31.62 47.65 32.7 47.02 32.92 46.75L33.15 46.49L34.14 47.4C34.14 47.4 33.19 48.01 33.17 47.99C33.15 47.97 31.62 47.65 31.62 47.65L31.62 47.65Z" fill="#6B7B3E" fill-opacity="1.000000" fill-rule="nonzero"/>
	<path id="Vector" d="M31.62 47.65C32.47 48.17 33.02 48.79 33.02 48.79L34.14 47.4L31.62 47.65Z" fill="#4B5B19" fill-opacity="1.000000" fill-rule="nonzero"/>
	<path id="Vector" d="M31.6 46.45C31.6 46.45 32.68 45.82 32.91 45.56L33.13 45.3L34.12 46.2C34.12 46.2 33.17 46.81 33.15 46.79C33.13 46.77 31.6 46.45 31.6 46.45L31.6 46.45Z" fill="#6B7B3E" fill-opacity="1.000000" fill-rule="nonzero"/>
	<path id="Vector" d="M31.6 46.45C32.45 46.97 33 47.59 33 47.59L34.12 46.2L31.6 46.45Z" fill="#4B5B19" fill-opacity="1.000000" fill-rule="nonzero"/>
	<path id="Vector" d="M31.86 49.99C31.86 49.99 32.94 49.35 33.17 49.09L33.4 48.83L34.39 49.74C34.39 49.74 33.43 50.35 33.41 50.33C33.4 50.31 31.86 49.99 31.86 49.99L31.86 49.99Z" fill="#6B7B3E" fill-opacity="1.000000" fill-rule="nonzero"/>
	<path id="Vector" d="M31.86 49.99C32.72 50.51 33.26 51.12 33.26 51.12L34.39 49.74L31.86 49.99Z" fill="#4B5B19" fill-opacity="1.000000" fill-rule="nonzero"/>
	<path id="Vector" d="M49.43 27.1C49.43 27.1 49.04 28.39 49.04 28.77L49.05 29.14L47.6 29.15C47.6 29.15 47.91 27.96 47.94 27.97C47.97 27.97 49.42 27.09 49.42 27.09L49.43 27.1Z" fill="#6B7B3E" fill-opacity="1.000000" fill-rule="nonzero"/>
	<path id="Vector" d="M49.43 27.1C48.37 27.31 47.48 27.22 47.48 27.22L47.6 29.15L49.43 27.1Z" fill="#4B5B19" fill-opacity="1.000000" fill-rule="nonzero"/>
	<path id="Vector" d="M51.03 28.32C51.03 28.32 50.64 29.62 50.65 29.99L50.66 30.37L49.21 30.38C49.21 30.38 49.51 29.19 49.54 29.19C49.58 29.19 51.03 28.32 51.03 28.32L51.03 28.32Z" fill="#6B7B3E" fill-opacity="1.000000" fill-rule="nonzero"/>
	<path id="Vector" d="M51.03 28.32C49.97 28.53 49.08 28.45 49.08 28.45L49.21 30.38L51.03 28.32Z" fill="#4B5B19" fill-opacity="1.000000" fill-rule="nonzero"/>
	<path id="Vector" d="M50.85 30.35C50.85 30.35 50.15 31.51 50.07 31.88L49.99 32.24L48.58 31.9C48.58 31.9 49.17 30.82 49.2 30.83C49.23 30.84 50.85 30.35 50.85 30.35L50.85 30.35Z" fill="#6B7B3E" fill-opacity="1.000000" fill-rule="nonzero"/>
	<path id="Vector" d="M50.85 30.35C49.77 30.29 48.93 29.99 48.93 29.99L48.58 31.9L50.85 30.35L50.85 30.35Z" fill="#4B5B19" fill-opacity="1.000000" fill-rule="nonzero"/>
	<path id="Vector" d="M49.4 29.65C49.4 29.65 49 30.94 49 31.32L49.01 31.7L47.56 31.7C47.56 31.7 47.88 30.51 47.91 30.51C47.94 30.51 49.4 29.65 49.4 29.65Z" fill="#6B7B3E" fill-opacity="1.000000" fill-rule="nonzero"/>
	<path id="Vector" d="M49.4 29.65C48.33 29.86 47.44 29.76 47.44 29.76L47.56 31.7L49.4 29.65L49.4 29.65Z" fill="#4B5B19" fill-opacity="1.000000" fill-rule="nonzero"/>
	<path id="Vector" d="M47.57 27.15C47.57 27.15 47.19 28.45 47.21 28.82L47.22 29.2L45.77 29.23C45.77 29.23 46.06 28.04 46.09 28.04C46.12 28.04 47.57 27.15 47.57 27.15L47.57 27.15Z" fill="#6B7B3E" fill-opacity="1.000000" fill-rule="nonzero"/>
	<path id="Vector" d="M47.56 27.15C46.51 27.37 45.62 27.3 45.62 27.3L45.77 29.23L47.57 27.15L47.56 27.15Z" fill="#4B5B19" fill-opacity="1.000000" fill-rule="nonzero"/>
	<path id="Vector" d="M45.64 24.71C45.64 24.71 45.76 26.06 45.91 26.4L46.07 26.75L44.72 27.3C44.72 27.3 44.56 26.08 44.59 26.07C44.62 26.06 45.64 24.71 45.64 24.71Z" fill="#6B7B3E" fill-opacity="1.000000" fill-rule="nonzero"/>
	<path id="Vector" d="M45.64 24.71C44.74 25.3 43.88 25.56 43.88 25.56L44.72 27.3L45.64 24.71Z" fill="#4B5B19" fill-opacity="1.000000" fill-rule="nonzero"/>
	<path id="Vector" d="M43.25 24.42C43.25 24.42 44.12 25.46 44.43 25.66L44.75 25.86L43.96 27.07C43.96 27.07 43.14 26.16 43.16 26.13C43.17 26.11 43.25 24.42 43.25 24.42Z" fill="#6B7B3E" fill-opacity="1.000000" fill-rule="nonzero"/>
	<path id="Vector" d="M43.25 24.42C42.84 25.42 42.28 26.11 42.28 26.11L43.96 27.07L43.25 24.42Z" fill="#4B5B19" fill-opacity="1.000000" fill-rule="nonzero"/>
	<path id="Vector" d="M42.16 25.7C42.16 25.7 43.02 26.75 43.34 26.95L43.66 27.15L42.87 28.36C42.87 28.36 42.05 27.45 42.07 27.42C42.08 27.4 42.16 25.71 42.16 25.71L42.16 25.7Z" fill="#6B7B3E" fill-opacity="1.000000" fill-rule="nonzero"/>
	<path id="Vector" d="M42.16 25.7C41.75 26.71 41.19 27.4 41.19 27.4L42.87 28.36L42.16 25.7Z" fill="#4B5B19" fill-opacity="1.000000" fill-rule="nonzero"/>
	<path id="Vector" d="M45.92 26.75C45.92 26.75 45.63 28.07 45.67 28.44L45.71 28.82L44.26 28.94C44.26 28.94 44.48 27.73 44.51 27.73C44.54 27.73 45.92 26.75 45.92 26.75L45.92 26.75Z" fill="#6B7B3E" fill-opacity="1.000000" fill-rule="nonzero"/>
	<path id="Vector" d="M45.92 26.75C44.88 27.04 43.99 27.03 43.99 27.03L44.27 28.94L45.92 26.74L45.92 26.75Z" fill="#4B5B19" fill-opacity="1.000000" fill-rule="nonzero"/>
	<path id="Vector" d="M43.82 26.51C43.82 26.51 42.59 27.82 42.19 27.69C41.79 27.56 41.64 26.87 41.64 26.87C41.64 26.87 41.24 27.71 40.73 27.89C40.23 28.07 40 27.28 40 27.28L39.93 27.63C39.85 27.98 39.67 28.47 39.38 28.58C39.08 28.68 38.64 27.99 38.64 27.99C38.64 27.99 38.86 28.71 38.32 29.33C37.79 29.95 36.95 29.01 36.95 29.01C36.95 29.01 37.15 29.54 37.27 29.97C37.36 30.28 37.33 30.58 37.18 30.78C37.21 30.63 37.22 30.56 37.2 30.59C37.17 30.64 37.14 30.74 37.1 30.86C37.06 30.89 37.01 30.92 36.95 30.94C36.63 31.06 35.72 30.57 35.72 30.57C35.72 30.57 36.65 32.15 36.42 32.52C36.37 32.58 36.33 32.64 36.28 32.69C35.62 33.38 34.25 32.83 34.25 32.83C34.25 32.83 35.58 34.32 35.06 34.76C34.53 35.2 33.25 35.32 33.25 35.32C33.25 35.32 35.03 36.33 34.64 36.98C34.25 37.62 33.08 37.93 33.08 37.93C33.08 37.93 33.18 37.96 33.78 38.33C34.3 38.65 34.43 39.07 34.31 39.52C33.72 40.11 32.49 39.89 32.49 39.89C32.49 39.89 34.09 41.09 33.67 41.62C33.25 42.15 32.01 42.53 32.01 42.53C32.01 42.53 33.96 43.16 33.71 43.88C33.46 44.59 32.38 45.13 32.38 45.13C32.38 45.13 32.48 45.13 33.13 45.37C33.47 45.5 33.68 45.67 33.79 45.89C33.8 45.99 33.79 46.09 33.78 46.21C33.7 46.78 32.51 46.66 32.51 46.66C32.51 46.66 33.63 47.32 33.7 47.9C33.78 48.48 32.41 48.78 32.41 48.78C32.41 48.78 33.94 49.36 33.91 49.8C33.89 50.23 32.92 51.29 32.97 51.32C33.02 51.36 34.39 51.29 34.39 51.29L33.38 52.69L34.53 52.47L33.47 54.51L34.96 54.21L34.34 56.33L36.03 55.81L35.94 56.95L36.55 56.81C36.55 56.81 38.44 59.74 40.23 59.88C44.21 60.19 48.65 57.08 49.98 49.44C50.41 47 50.54 42.16 50.54 41.13C50.52 38.4 49.73 34.63 49.26 33.47C46.95 27.75 44.49 27.52 44.04 27.59C43.58 27.66 43.81 26.51 43.81 26.51L43.82 26.51Z" fill="#FFE6C1" fill-opacity="1.000000" fill-rule="nonzero"/>
	<path id="Vector" d="M36.42 36.28C35.63 38.64 34.99 44.01 35.12 46.14C35.26 48.27 35.28 50.7 36.07 52.32C36.85 53.93 38.45 56.11 38.68 57C38.92 57.9 39.96 59.82 41.53 59.34C43.1 58.86 43.73 58.58 46.04 55.72C48.35 52.86 49.38 50.37 49.46 47.85C49.54 45.34 49.13 43.76 49.09 42.14C49.05 39.61 47.88 32.38 45.15 29.3C43.87 27.85 39.67 26.53 36.41 36.27L36.42 36.28Z" fill="#F4C895" fill-opacity="1.000000" fill-rule="nonzero"/>
	<path id="Vector" d="M36.14 45.13C36.14 45.13 36.1 50.32 36.54 51.62C36.99 52.92 38.43 54.61 38.86 55.4C39.3 56.2 39.72 57.14 39.9 57.73C40.09 58.32 40.87 59.09 41.73 58.57C42.6 58.05 43.91 56.37 44.97 55C46.04 53.62 47.62 51.61 47.9 50.75C48.17 49.88 48.18 48.52 48.33 46.45C48.49 44.39 48.31 42.74 48.35 42.26C48.55 40.15 47.53 35.73 47.53 35.73L38.31 45.65L36.14 45.13L36.14 45.13Z" fill="#E77F40" fill-opacity="1.000000" fill-rule="nonzero"/>
	<path id="Vector" d="M40.63 57.68C40.89 57.92 41.29 57.95 41.58 57.75C42.59 57.06 42.43 56.56 45.69 52.59C47.21 50.74 47.63 47.92 47.62 46.38C47.61 44.84 48.38 41.39 47.9 37.39C47.43 33.39 45.37 29.94 44.19 29.25C43.28 28.72 39.04 28.48 37.38 34.51C35.73 40.55 35.87 44.31 36.09 47.25C36.31 50.2 36.61 51.78 38.65 54.26C40.89 56.96 39.99 57.08 40.63 57.68L40.63 57.68Z" fill="#FFCA00" fill-opacity="1.000000" fill-rule="nonzero"/>
	<path id="Vector" d="M40.01 30.77C39.65 31.18 39.35 31.65 39.09 32.12C38.02 34.08 37.5 36.32 37.62 38.53C37.69 39.9 38.15 41.06 38.75 42.28C39.28 43.35 40.83 43.33 41.78 42.83C42.73 42.33 43.32 41.36 43.76 40.39C45.08 37.45 45.76 33.73 44.25 30.79C43.89 30.09 43.38 29.54 42.54 29.5C41.96 29.46 41.39 29.67 40.91 29.98C40.57 30.2 40.27 30.47 40.01 30.77L40.01 30.77Z" fill="#FFDF82" fill-opacity="1.000000" fill-rule="nonzero"/>
	<path id="Vector" d="M37 50.72C36.99 50.78 37 50.84 37.01 50.9C37.07 51.22 37.24 51.57 37.38 51.87C37.56 52.24 37.77 52.59 38.01 52.93C38.89 54.16 39.9 55.01 40.12 55.77C40.35 56.53 40.61 57.24 41.09 57.1C41.57 56.96 42.14 55.79 42.97 54.69C43.8 53.59 45.24 51.96 45.73 50.91C46.21 49.87 46.55 47.55 46.65 46.5C46.74 45.44 46.93 43.68 47 42.8C47.08 41.92 46.27 42.05 45.49 45.12C44.72 48.19 43.65 50.16 42.31 51.47C41.67 52.09 40.8 52.37 39.92 52.3C39.58 52.27 39.23 52.19 38.91 52.04C38.49 51.83 38.26 51.44 37.96 51.08C37.78 50.86 37.59 50.64 37.41 50.43C37.35 50.37 37.28 50.3 37.2 50.32C37.16 50.33 37.12 50.37 37.09 50.4C37.03 50.5 37 50.61 37 50.72L37 50.72Z" fill="#FFB41A" fill-opacity="1.000000" fill-rule="nonzero"/>
	<path id="Vector" d="M36.95 47.44C36.81 47.39 36.67 47.48 36.65 47.61C36.62 47.81 36.67 48.1 37.09 48.4C37.84 48.91 39.45 49.33 39.85 49.06C40.25 48.79 39.86 48.53 39.17 48.42C38.48 48.3 37.96 48.16 37.65 47.94C37.34 47.72 37.1 47.5 36.95 47.44C36.95 47.44 36.95 47.44 36.95 47.44L36.95 47.44Z" fill="#FFB41A" fill-opacity="1.000000" fill-rule="nonzero"/>
	<path id="Vector" d="M37.24 49.25C37.4 49.4 38.65 50.01 38.98 50.05C39.32 50.09 39.19 50.22 39.05 50.25C38.91 50.29 38.15 50 37.64 49.69C37.12 49.37 36.91 49.28 36.97 49.21C37.02 49.14 37.24 49.25 37.24 49.25Z" fill="#FFB41A" fill-opacity="1.000000" fill-rule="nonzero"/>
	<path id="Vector" d="M43.08 46.86C43.81 47.1 45.44 47.21 46.16 46.9C46.87 46.58 47.16 44.87 46.66 44.94C46.17 45 45.31 45.9 44.41 45.95C43.51 46 42.95 46.07 42.8 46.34C42.64 46.62 42.95 46.81 43.08 46.86Z" fill="#FFB41A" fill-opacity="1.000000" fill-rule="nonzero"/>
	<path id="Vector" d="M36.8 42.93C36.8 42.93 36.79 45.03 36.89 45.74C36.99 46.46 38.04 47.38 38.91 47.45C39.77 47.53 41.45 46.63 41.77 45.29C42.08 43.95 41.01 43.9 39.77 43.77C38.52 43.64 37.92 41.81 37.38 41.8C36.85 41.79 36.8 42.93 36.8 42.93L36.8 42.93Z" fill="#FFDF82" fill-opacity="1.000000" fill-rule="nonzero"/>
</svg>
